<?xml version="1.0" standalone="no"?>
<!DOCTYPE svg PUBLIC "-//W3C//DTD SVG 1.1//EN" "http://www.w3.org/Graphics/SVG/1.1/DTD/svg11.dtd" >
<svg xmlns="http://www.w3.org/2000/svg" xmlns:xlink="http://www.w3.org/1999/xlink" version="1.1">
<metadata>
Created by FontForge 20170910 at Fri Oct 26 17:41:27 2007
 By Jimmy Wärting
Copyright (c) Christian Schwartz, 2007. All rights reserved.
</metadata>
<defs>
<font id="StagSans-MediumItalic" horiz-adv-x="400" >
  <font-face 
    font-family="Stag Sans Medium"
    font-weight="500"
    font-style="italic"
    font-stretch="normal"
    units-per-em="1000"
    panose-1="2 11 6 3 4 0 0 2 0 4"
    ascent="800"
    descent="-200"
    x-height="525"
    cap-height="700"
    bbox="-237 -221 1186 925"
    underline-thickness="50"
    underline-position="-100"
    slope="-12"
    stemh="104"
    stemv="147"
    unicode-range="U+0020-FB02"
  />
<missing-glyph horiz-adv-x="500" 
 />
    <glyph glyph-name="f_f" unicode="ff" horiz-adv-x="637" 
d="M22 0l93 427h-62l21 98h62l8 34c24 101 85 145 183 145c40 0 69 -6 87 -14l-19 -87h-28c-44 0 -68 -8 -78 -49l-7 -29h156l9 40c23 100 85 145 183 145c42 0 72 -6 90 -14l-19 -87h-31c-44 0 -69 -8 -78 -49l-8 -35h90l-21 -98h-91l-96 -427h-142l93 427h-157l-96 -427
h-142z" />
    <glyph glyph-name=".notdef" horiz-adv-x="500" 
 />
    <glyph glyph-name="space" unicode=" " horiz-adv-x="190" 
 />
    <glyph glyph-name="exclam" unicode="!" horiz-adv-x="264" 
d="M69 206l67 408l20 86h156l-20 -86l-131 -408h-92zM84 -6c-46 0 -78 35 -78 78c0 47 41 83 87 83c47 0 79 -36 79 -78c0 -48 -42 -83 -88 -83z" />
    <glyph glyph-name="quotedbl" unicode="&#x22;" horiz-adv-x="369" 
d="M101 476l11 151l17 73h136l-17 -73l-61 -151h-86zM282 476l11 151l17 73h136l-17 -73l-61 -151h-86z" />
    <glyph glyph-name="numbersign" unicode="#" horiz-adv-x="504" 
d="M32 0l54 200h-75l25 109h81l28 106h-77l26 109h81l47 176h99l-47 -176h91l47 176h99l-47 -176h78l-26 -109h-82l-28 -106h78l-25 -109h-84l-54 -200h-99l54 200h-91l-54 -200h-99zM216 309h91l28 106h-91z" />
    <glyph glyph-name="dollar" unicode="$" horiz-adv-x="524" 
d="M125 -102l23 101c-72 12 -123 42 -155 71l23 101h52c24 -32 56 -58 104 -69l47 204c-88 36 -144 90 -144 185c0 135 104 216 248 217l13 56h89l-15 -65c50 -10 93 -30 127 -57l-22 -94h-51c-23 24 -47 41 -78 50l-45 -195c86 -35 156 -82 156 -187
c0 -140 -105 -221 -262 -224l-21 -94h-89zM357 201c0 35 -18 53 -57 72l-40 -174c53 9 97 38 97 102zM205 510c0 -34 16 -53 55 -73l39 168c-48 -7 -94 -36 -94 -95z" />
    <glyph glyph-name="percent" unicode="%" horiz-adv-x="820" 
d="M229 416c59 -1 84 90 84 144c0 34 -12 66 -51 66c-60 0 -85 -92 -85 -146c0 -34 12 -63 52 -64zM220 334c-92 0 -155 61 -155 149c0 118 85 225 205 225c92 0 155 -59 155 -151c0 -115 -86 -223 -205 -223zM60 -34l629 763h109l-629 -763h-109zM600 74c59 0 84 90 84 144
c0 34 -12 66 -51 66c-59 0 -85 -92 -85 -146c0 -34 12 -64 52 -64zM591 -8c-92 0 -155 60 -155 148c0 118 85 226 205 226c92 0 154 -59 154 -151c0 -115 -85 -223 -204 -223z" />
    <glyph glyph-name="ampersand" unicode="&#x26;" horiz-adv-x="680" 
d="M242 -9c-120 0 -233 57 -233 196c0 101 79 182 186 218c-10 26 -16 51 -16 83c0 123 93 220 252 220c66 0 114 -12 158 -41l-22 -112h-54c-22 24 -48 39 -88 39c-57 0 -98 -37 -98 -98c0 -30 9 -54 39 -95l110 -151c26 47 57 108 67 164h122v-32
c-25 -88 -73 -169 -118 -229l80 -113l3 -40h-151l-39 54c-56 -39 -111 -63 -198 -63zM276 101c48 0 80 17 103 35l-140 191c-44 -25 -73 -64 -73 -126c0 -64 46 -100 110 -100z" />
    <glyph glyph-name="quoteright" unicode="&#x2019;" horiz-adv-x="183" 
d="M57 457l14 65c41 4 70 17 70 36c0 12 -7 14 -20 23c-15 10 -24 26 -24 47c0 47 37 79 79 79c43 0 77 -31 77 -78c0 -107 -79 -167 -196 -172z" />
    <glyph glyph-name="parenleft" unicode="(" horiz-adv-x="337" 
d="M215 -49c-91 36 -172 131 -172 304c0 218 128 432 346 486h40l-24 -100c-134 -49 -226 -205 -226 -389c0 -128 43 -183 89 -205l-22 -96h-31z" />
    <glyph glyph-name="parenright" unicode=")" horiz-adv-x="337" 
d="M-49 -49l24 100c134 49 226 205 226 389c0 128 -43 183 -89 205l22 96h31c91 -36 172 -131 172 -304c0 -218 -128 -432 -346 -486h-40z" />
    <glyph glyph-name="asterisk" unicode="*" horiz-adv-x="382" 
d="M270 368l-19 40l-10 77l-48 -77l-35 -34l-72 78l36 33l72 37l-71 9l-41 18l53 100l41 -18l54 -52l-7 75l11 46h113l-13 -54l-39 -74l72 38l45 9l13 -107l-47 -9l-74 8l52 -52l18 -39z" />
    <glyph glyph-name="plus" unicode="+" horiz-adv-x="509" 
d="M157 100l43 188h-178l27 115h178l43 188h122l-43 -188h177l-27 -115h-177l-43 -188h-122z" />
    <glyph glyph-name="comma" unicode="," horiz-adv-x="204" 
d="M-65 -110l14 64c44 4 75 22 75 43c0 13 -8 14 -22 24c-16 11 -25 28 -25 50c0 50 39 84 84 84s82 -33 82 -83c0 -114 -84 -176 -208 -182z" />
    <glyph glyph-name="hyphen" unicode="-" horiz-adv-x="283" 
d="M21 238l28 119h231l-28 -119h-231z" />
    <glyph glyph-name="period" unicode="." horiz-adv-x="203" 
d="M56 -6c-46 0 -78 35 -78 78c0 47 41 83 87 83c47 0 79 -36 79 -78c0 -48 -42 -83 -88 -83z" />
    <glyph glyph-name="slash" unicode="/" horiz-adv-x="352" 
d="M-53 -49v30l390 760h109v-30l-391 -760h-108z" />
    <glyph glyph-name="zero" unicode="0" horiz-adv-x="668" 
d="M312 101c146 0 200 231 200 344c0 86 -23 153 -107 153c-150 0 -206 -237 -206 -345c0 -89 23 -152 113 -152zM302 -8c-158 0 -258 104 -258 263c0 219 129 453 368 453c158 0 255 -105 255 -267c0 -219 -126 -449 -365 -449z" />
    <glyph glyph-name="one" unicode="1" horiz-adv-x="380" 
d="M83 0l122 532l-93 -44h-40l25 108l199 104h104l-161 -700h-156z" />
    <glyph glyph-name="two" unicode="2" horiz-adv-x="535" 
d="M-38 0l28 123l242 184c79 60 160 133 160 210c0 50 -29 75 -94 75c-58 0 -111 -23 -152 -47h-49l26 113c55 31 124 50 201 50c126 0 225 -55 225 -186c0 -113 -87 -191 -219 -286l-158 -114h301l-28 -122h-483z" />
    <glyph glyph-name="three" unicode="3" horiz-adv-x="522" 
d="M207 -8c-98 0 -173 30 -221 75l24 103h56c29 -41 81 -65 136 -66c74 -1 129 35 129 102c0 54 -26 96 -112 96h-47l25 109h60c71 0 129 31 129 104c0 61 -44 82 -90 83c-55 1 -102 -19 -134 -40h-57l24 105c48 27 106 46 189 46c102 0 212 -40 212 -181
c0 -95 -64 -156 -155 -176v-4c64 -17 106 -71 106 -145c0 -133 -122 -211 -274 -211z" />
    <glyph glyph-name="four" unicode="4" horiz-adv-x="593" 
d="M280 0l34 148h-312l30 130l414 422h148l-102 -443h84l-25 -109h-84l-34 -148h-153zM147 257h192l59 256h-4l-247 -252v-4z" />
    <glyph glyph-name="five" unicode="5" horiz-adv-x="545" 
d="M209 -8c-106 0 -172 27 -217 67l24 102h59c29 -39 71 -58 131 -58c80 0 152 54 152 145c0 59 -40 90 -91 90c-55 0 -90 -24 -112 -47h-89l94 409h413l-28 -122h-301l-38 -163h3c24 18 61 34 116 34c110 0 190 -68 190 -192c0 -168 -140 -265 -306 -265z" />
    <glyph glyph-name="six" unicode="6" horiz-adv-x="607" 
d="M292 -8c-149 0 -248 88 -248 249c0 98 26 207 81 292c68 104 176 174 320 174c79 0 132 -15 176 -46l-25 -103h-57c-22 24 -57 39 -99 39c-89 0 -143 -43 -182 -108c-19 -31 -33 -67 -42 -105c43 35 99 59 165 59c108 0 192 -64 192 -195c0 -138 -109 -256 -281 -256z
M324 340c-46 0 -93 -19 -123 -38c-3 -25 -4 -51 -4 -74c0 -76 22 -135 101 -135c77 0 126 62 126 152c0 58 -32 95 -100 95z" />
    <glyph glyph-name="seven" unicode="7" horiz-adv-x="522" 
d="M67 0v61l381 513v4h-352l28 122h473l-31 -133l-345 -567h-154z" />
    <glyph glyph-name="eight" unicode="8" horiz-adv-x="596" 
d="M269 -9c-105 0 -258 36 -258 190c0 113 80 174 177 196v4c-49 24 -79 70 -79 120c0 133 117 207 260 207c141 0 229 -69 229 -179c0 -93 -61 -143 -139 -162v-4c61 -26 101 -76 101 -148c0 -143 -118 -224 -291 -224zM273 93c88 0 136 57 136 127c0 58 -33 103 -110 103
c-86 0 -137 -59 -137 -133c0 -63 52 -97 111 -97zM345 421c59 0 107 35 107 101c0 49 -33 81 -89 81c-60 0 -107 -37 -107 -104c0 -53 43 -78 89 -78z" />
    <glyph glyph-name="nine" unicode="9" horiz-adv-x="607" 
d="M199 -9c-85 0 -136 17 -181 45l24 101h57c24 -23 57 -36 104 -36c71 0 131 27 168 72c30 36 51 83 63 136c-43 -34 -98 -54 -169 -54c-115 0 -192 66 -192 180c0 155 122 271 286 271c144 0 246 -88 246 -242c0 -136 -35 -252 -104 -340c-67 -84 -169 -133 -302 -133z
M321 360c44 0 96 15 127 33c3 27 4 55 4 84c0 69 -25 128 -98 128c-79 0 -136 -60 -136 -155c0 -60 35 -90 103 -90z" />
    <glyph glyph-name="colon" unicode=":" horiz-adv-x="203" 
d="M54 -6c-46 0 -78 35 -78 78c0 47 41 83 87 83c47 0 79 -36 79 -78c0 -48 -42 -83 -88 -83zM120 284c-46 0 -78 35 -78 78c0 47 41 83 87 83c47 0 79 -36 79 -78c0 -48 -42 -83 -88 -83z" />
    <glyph glyph-name="semicolon" unicode=";" horiz-adv-x="203" 
d="M-67 -110l14 64c44 4 75 22 75 43c0 13 -8 14 -22 24c-16 11 -25 28 -25 50c0 50 40 84 85 84s81 -33 81 -83c0 -114 -84 -176 -208 -182zM120 284c-46 0 -78 35 -78 78c0 47 41 83 87 83c47 0 79 -36 79 -78c0 -48 -42 -83 -88 -83z" />
    <glyph glyph-name="less" unicode="&#x3c;" horiz-adv-x="436" 
d="M342 88l-320 196l22 97l410 190h34l-27 -114l-283 -130v-3l222 -132l-24 -104h-34z" />
    <glyph glyph-name="equal" unicode="=" horiz-adv-x="487" 
d="M-5 152l27 115h447l-27 -115h-447zM44 362l26 115h447l-26 -115h-447z" />
    <glyph glyph-name="greater" unicode="&#x3e;" horiz-adv-x="436" 
d="M-20 88l26 114l283 130v3l-221 132l24 104h34l320 -196l-22 -97l-410 -190h-34z" />
    <glyph glyph-name="question" unicode="?" horiz-adv-x="449" 
d="M110 206c7 83 23 131 107 194c47 35 113 71 113 135c0 42 -31 60 -74 60c-44 0 -80 -15 -109 -35h-57l25 109c41 24 97 40 167 40c104 0 202 -40 202 -164c0 -84 -60 -150 -143 -199c-72 -42 -116 -71 -127 -140h-104zM135 -6c-46 0 -78 35 -78 78c0 47 41 83 87 83
c47 0 79 -36 79 -78c0 -48 -42 -83 -88 -83z" />
    <glyph glyph-name="at" unicode="@" horiz-adv-x="867" 
d="M434 -134c-209 0 -409 105 -409 367c0 277 240 434 448 434c211 0 382 -115 382 -327c0 -187 -116 -274 -243 -274c-81 0 -118 25 -132 63c-28 -33 -69 -63 -130 -63c-76 0 -126 48 -126 143c0 117 82 250 224 250c52 0 79 -17 102 -40c18 22 38 34 72 34h46l-55 -243
c-7 -32 -4 -57 30 -57c63 0 108 59 108 187c0 151 -105 238 -278 238c-167 0 -337 -115 -337 -345c0 -203 127 -278 298 -278c99 0 181 23 256 67h35l-21 -93c-68 -40 -155 -63 -270 -63zM395 157c28 0 58 14 81 39l38 163c-11 4 -22 8 -48 8c-68 0 -113 -75 -113 -158
c0 -35 16 -52 42 -52z" />
    <glyph glyph-name="A" unicode="A" horiz-adv-x="665" 
d="M-34 0v41l372 659h167l87 -659v-41h-153l-20 185h-233l-97 -185h-123zM378 550l-136 -258h165l-27 258h-2z" />
    <glyph glyph-name="B" unicode="B" horiz-adv-x="608" 
d="M4 0l161 700h206c144 0 231 -59 231 -171c0 -94 -61 -146 -150 -167v-4c70 -15 114 -59 114 -139c0 -153 -135 -219 -294 -219h-268zM182 110h100c76 0 129 35 129 116c0 53 -32 87 -96 87h-86zM254 416h75c66 0 123 23 123 100c0 45 -29 74 -91 74h-68z" />
    <glyph glyph-name="C" unicode="C" horiz-adv-x="617" 
d="M349 -8c-178 0 -304 88 -304 282c0 216 143 434 401 434c83 0 145 -17 194 -50l-24 -104h-55c-29 26 -68 41 -122 41c-174 0 -235 -193 -235 -323c0 -120 57 -170 153 -170c56 0 100 18 139 45h59l-26 -113c-40 -23 -97 -42 -180 -42z" />
    <glyph glyph-name="D" unicode="D" horiz-adv-x="692" 
d="M185 110h102c184 0 236 178 236 304c0 96 -34 174 -146 174h-82zM4 0l161 700h215c190 0 303 -102 303 -286c0 -208 -130 -414 -391 -414h-288z" />
    <glyph glyph-name="E" unicode="E" horiz-adv-x="563" 
d="M4 0l161 700h446l-26 -113h-290l-41 -178h214l-25 -107h-214l-44 -192h313l-25 -110h-469z" />
    <glyph glyph-name="F" unicode="F" horiz-adv-x="545" 
d="M4 0l161 700h455l-26 -113h-299l-45 -193h236l-24 -107h-236l-66 -287h-156z" />
    <glyph glyph-name="G" unicode="G" horiz-adv-x="668" 
d="M352 -8c-173 0 -307 81 -307 275c0 222 141 441 404 441c83 0 151 -16 206 -52l-25 -107h-53c-34 31 -75 46 -138 46c-171 0 -236 -189 -236 -332c0 -103 44 -164 156 -164c27 0 49 3 68 9l36 156h-97l23 101h250l-75 -327c-42 -25 -119 -46 -212 -46z" />
    <glyph glyph-name="H" unicode="H" horiz-adv-x="693" 
d="M4 0l161 700h156l-66 -288h257l66 288h156l-161 -700h-156l70 302h-258l-69 -302h-156z" />
    <glyph glyph-name="I" unicode="I" horiz-adv-x="287" 
d="M7 0l161 700h157l-161 -700h-157z" />
    <glyph glyph-name="J" unicode="J" horiz-adv-x="457" 
d="M141 -8c-84 0 -137 23 -169 46l24 104h51c15 -19 44 -38 87 -38c55 0 81 29 93 82l118 514h157l-124 -537c-24 -102 -96 -171 -237 -171z" />
    <glyph glyph-name="K" unicode="K" horiz-adv-x="653" 
d="M4 0l161 700h156l-74 -322l318 322h132v-42l-260 -253l147 -363v-42h-146l-119 300l-115 -110l-44 -190h-156z" />
    <glyph glyph-name="L" unicode="L" horiz-adv-x="534" 
d="M4 0l161 700h156l-136 -590h282l-25 -110h-438z" />
    <glyph glyph-name="M" unicode="M" horiz-adv-x="835" 
d="M4 0l161 700h203l39 -465h3l251 465h215l-161 -700h-154l122 530h-3l-289 -530h-94l-42 530h-3l-122 -530h-126z" />
    <glyph glyph-name="N" unicode="N" horiz-adv-x="686" 
d="M4 0l161 700h177l147 -448h3l104 448h131l-161 -700h-142l-170 509h-3l-117 -509h-130z" />
    <glyph glyph-name="O" unicode="O" horiz-adv-x="730" 
d="M350 100c149 0 212 186 212 315c0 93 -33 185 -145 185c-151 0 -213 -192 -213 -316c0 -103 40 -184 146 -184zM345 -8c-185 0 -300 120 -300 296c0 218 145 420 375 420c184 0 301 -121 301 -296c0 -208 -135 -420 -376 -420z" />
    <glyph glyph-name="P" unicode="P" horiz-adv-x="596" 
d="M4 0l161 700h207c162 0 244 -68 244 -198c0 -169 -118 -249 -311 -249h-87l-58 -253h-156zM242 358h71c98 0 153 43 153 149c0 50 -26 81 -105 81h-66z" />
    <glyph glyph-name="Q" unicode="Q" horiz-adv-x="730" 
d="M595 -121l-287 94c-174 57 -263 151 -263 315c0 218 145 420 375 420c184 0 301 -121 301 -296c0 -179 -83 -326 -245 -377v-3l206 -35l-27 -118h-60zM352 99c150 0 210 187 210 316c0 93 -33 185 -145 185c-151 0 -213 -192 -213 -316c0 -103 36 -185 148 -185z" />
    <glyph glyph-name="R" unicode="R" horiz-adv-x="628" 
d="M415 0l-108 274h-84l-63 -274h-156l161 700h212c164 0 243 -72 243 -201c0 -103 -68 -176 -169 -208l105 -250v-41h-141zM247 379h80c92 0 143 42 143 128c0 49 -25 81 -104 81h-71z" />
    <glyph glyph-name="S" unicode="S" horiz-adv-x="530" 
d="M222 -8c-113 0 -187 36 -230 75l24 107h52c32 -41 80 -71 160 -71c60 0 121 24 121 97c0 52 -43 67 -120 97c-94 36 -149 89 -149 187c0 142 101 224 253 224c88 0 157 -26 209 -67l-24 -101h-51c-38 36 -78 57 -143 57c-54 0 -105 -25 -105 -87c0 -50 30 -64 116 -97
c94 -36 160 -81 160 -189c0 -151 -108 -232 -273 -232z" />
    <glyph glyph-name="T" unicode="T" horiz-adv-x="571" 
d="M148 0l136 590h-187l25 110h530l-25 -110h-187l-136 -590h-156z" />
    <glyph glyph-name="U" unicode="U" horiz-adv-x="666" 
d="M310 -8c-186 0 -290 106 -247 291l96 417h156l-101 -436c-20 -86 2 -157 109 -157c85 0 131 42 155 146l103 447h130l-105 -456c-35 -150 -117 -252 -296 -252z" />
    <glyph glyph-name="V" unicode="V" horiz-adv-x="638" 
d="M183 0l-70 659v41h149l46 -520h2l280 520h122v-41l-369 -659h-160z" />
    <glyph glyph-name="W" unicode="W" horiz-adv-x="917" 
d="M130 0l-14 659v41h146l4 -508h2l231 508h132l3 -508h2l222 508h129v-41l-309 -659h-173l4 458h-2l-203 -458h-174z" />
    <glyph glyph-name="X" unicode="X" horiz-adv-x="650" 
d="M-15 0v44l263 321l-119 291v44h148l94 -248l188 248h126v-44l-242 -302l126 -310v-44h-148l-102 268l-208 -268h-126z" />
    <glyph glyph-name="Y" unicode="Y" horiz-adv-x="592" 
d="M166 0l65 281l-124 375v44h145l88 -290h2l210 290h119v-44l-288 -390l-61 -266h-156z" />
    <glyph glyph-name="Z" unicode="Z" horiz-adv-x="558" 
d="M-31 0l27 118l425 467v4h-291l26 111h472l-28 -121l-426 -467v-4h317l-24 -108h-498z" />
    <glyph glyph-name="bracketleft" unicode="[" horiz-adv-x="338" 
d="M0 -49l183 790h237l-23 -96h-101l-138 -598h101l-22 -96h-237z" />
    <glyph glyph-name="backslash" unicode="\" horiz-adv-x="352" 
d="M187 -49l-91 760v30h111l91 -760v-30h-111z" />
    <glyph glyph-name="bracketright" unicode="]" horiz-adv-x="338" 
d="M-39 -49l22 96h101l138 598h-101l23 96h237l-183 -790h-237z" />
    <glyph glyph-name="asciicircum" unicode="^" horiz-adv-x="421" 
d="M68 452v34l185 214h105l95 -214v-34h-108l-59 129h-3l-111 -129h-104z" />
    <glyph glyph-name="underscore" unicode="_" horiz-adv-x="373" 
d="M-97 -162l22 93h376l-22 -93h-376z" />
    <glyph glyph-name="quoteleft" unicode="&#x2018;" horiz-adv-x="183" 
d="M155 453c-43 0 -77 31 -77 78c0 107 79 167 196 172l-15 -65c-41 -4 -69 -17 -69 -36c0 -12 7 -14 20 -23c15 -10 24 -26 24 -47c0 -47 -37 -79 -79 -79z" />
    <glyph glyph-name="a" unicode="a" horiz-adv-x="509" 
d="M351 0c-32 0 -61 15 -72 50c-32 -33 -77 -56 -134 -56c-83 0 -142 49 -142 141c0 114 90 181 228 181c45 0 70 -5 91 -12l4 19c16 69 -4 105 -69 105c-53 0 -92 -11 -129 -32h-42l24 104c46 19 96 33 172 33c147 0 223 -68 187 -225l-71 -308h-47zM198 85
c35 0 59 16 83 39l22 100c-16 4 -36 8 -63 8c-66 0 -100 -36 -100 -87c0 -38 20 -60 58 -60z" />
    <glyph glyph-name="b" unicode="b" horiz-adv-x="581" 
d="M-4 0l160 700h89c38 0 55 -12 39 -82l-35 -152c39 39 94 67 157 67c79 0 149 -56 149 -188c0 -219 -113 -352 -274 -352c-71 0 -118 33 -143 62c-22 -29 -54 -55 -101 -55h-41zM344 425c-39 0 -74 -18 -114 -45l-59 -259c14 -15 35 -33 82 -33c106 0 157 112 157 248
c0 59 -27 89 -66 89z" />
    <glyph glyph-name="c" unicode="c" horiz-adv-x="484" 
d="M263 -7c-160 0 -236 86 -236 216c0 192 138 324 316 324c69 0 117 -16 154 -44l-22 -94h-53c-15 18 -42 32 -83 32c-102 0 -168 -95 -168 -217c0 -76 35 -113 103 -113c46 0 75 13 102 31h54l-23 -99c-33 -21 -80 -36 -144 -36z" />
    <glyph glyph-name="d" unicode="d" horiz-adv-x="581" 
d="M426 0c-54 0 -78 28 -84 64c-37 -45 -88 -72 -149 -72c-94 0 -169 53 -169 193c0 195 118 347 279 347c60 0 98 -20 123 -49l50 217h88c38 0 55 -12 39 -82l-141 -618h-36zM244 93c31 0 69 16 103 42l58 257c-15 14 -38 31 -79 31c-99 0 -157 -101 -157 -232
c0 -66 21 -98 75 -98z" />
    <glyph glyph-name="e" unicode="e" horiz-adv-x="515" 
d="M251 -7c-145 0 -227 74 -227 215c0 170 105 325 280 325c127 0 190 -75 189 -189c0 -35 -6 -74 -17 -114h-310v-20c0 -84 35 -115 101 -115c49 0 91 13 129 37h47l-23 -101c-38 -21 -93 -38 -169 -38zM295 440c-58 0 -98 -48 -117 -122h185c3 14 4 27 4 39
c0 56 -28 83 -72 83z" />
    <glyph glyph-name="f" unicode="f" horiz-adv-x="335" 
d="M22 0l93 427h-62l21 98h62l9 40c23 100 85 145 183 145c42 0 72 -6 90 -14l-19 -87h-31c-44 0 -69 -8 -78 -49l-8 -35h90l-21 -98h-91l-96 -427h-142z" />
    <glyph glyph-name="g" unicode="g" horiz-adv-x="575" 
d="M183 -172c-101 0 -158 25 -193 48l24 101h44c25 -27 67 -43 123 -43c70 0 124 24 141 100l13 57c-39 -41 -94 -69 -154 -69c-85 0 -157 54 -157 175c0 189 116 336 280 336c64 0 112 -32 138 -59c21 27 53 51 98 51h41l-114 -494c-36 -154 -135 -203 -284 -203zM234 124
c39 0 80 18 120 50l52 229c-15 15 -37 34 -82 34c-106 0 -155 -118 -155 -234c0 -54 22 -79 65 -79z" />
    <glyph glyph-name="h" unicode="h" horiz-adv-x="572" 
d="M-4 0l160 700h88c38 0 55 -12 39 -82l-35 -155c52 40 108 70 187 70c82 0 133 -67 108 -177l-82 -356h-97c-34 0 -45 14 -33 65l65 291c9 42 -4 61 -36 61c-37 0 -80 -15 -134 -48l-84 -369h-146z" />
    <glyph glyph-name="i" unicode="i" horiz-adv-x="260" 
d="M-3 0l120 525h80c46 0 63 -12 44 -96l-98 -429h-146zM208 567c-44 0 -74 33 -74 74c0 45 39 79 83 79s75 -34 75 -74c0 -46 -40 -79 -84 -79z" />
    <glyph glyph-name="j" unicode="j" horiz-adv-x="258" 
d="M-31 -168c-45 0 -65 6 -87 14l19 81h18c49 0 64 10 75 60l123 538h80c46 0 63 -12 44 -96l-103 -451c-25 -110 -81 -146 -169 -146zM208 567c-44 0 -74 33 -74 74c0 45 39 79 83 79s75 -34 75 -74c0 -46 -40 -79 -84 -79z" />
    <glyph glyph-name="k" unicode="k" horiz-adv-x="524" 
d="M-4 0l160 700h88c38 0 55 -12 39 -82l-67 -292l202 199h127v-38l-199 -183l121 -264v-40h-135l-97 212l-57 -54l-36 -158h-146z" />
    <glyph glyph-name="l" unicode="l" horiz-adv-x="263" 
d="M-3 0l160 700h88c38 0 55 -12 39 -82l-141 -618h-146z" />
    <glyph glyph-name="m" unicode="m" horiz-adv-x="848" 
d="M-4 0l120 525h46c56 0 77 -29 78 -72c50 43 105 80 177 80c55 0 95 -29 108 -81c58 48 120 81 189 81c84 0 131 -66 105 -177l-83 -356h-97c-34 0 -45 14 -33 65l65 291c9 42 -2 61 -32 61c-28 0 -63 -14 -114 -45l-3 -16l-83 -356h-145l80 356c9 42 -2 61 -32 61
c-28 0 -64 -14 -114 -46l-85 -371h-147z" />
    <glyph glyph-name="n" unicode="n" horiz-adv-x="572" 
d="M-4 0l120 525h48c55 0 74 -27 76 -68c54 43 112 76 195 76c82 0 133 -67 108 -177l-82 -356h-97c-34 0 -45 14 -33 65l65 291c9 42 -4 61 -36 61c-37 0 -80 -15 -134 -48l-84 -369h-146z" />
    <glyph glyph-name="o" unicode="o" horiz-adv-x="569" 
d="M262 95c89 0 137 104 137 216c0 84 -36 118 -90 118c-86 0 -139 -108 -139 -218c0 -84 36 -116 92 -116zM257 -6c-146 0 -230 85 -230 220c0 194 133 319 286 319c146 0 229 -90 229 -225c0 -194 -124 -314 -285 -314z" />
    <glyph glyph-name="p" unicode="p" horiz-adv-x="576" 
d="M-40 -162l156 687h48c54 0 75 -26 78 -67c39 43 97 75 158 75c85 0 155 -56 155 -194c0 -213 -113 -333 -270 -333c-63 0 -103 20 -129 44l-48 -212h-148zM344 425c-38 0 -72 -15 -112 -43l-57 -250c16 -14 40 -29 82 -29c102 0 153 97 153 233c0 59 -27 89 -66 89z" />
    <glyph glyph-name="q" unicode="q" horiz-adv-x="581" 
d="M279 -162l52 227c-38 -38 -92 -59 -146 -59c-84 0 -161 50 -161 177c0 208 127 349 285 349c61 0 106 -26 134 -59c22 28 53 52 99 52h41l-157 -687h-147zM237 105c37 0 74 16 114 49l56 245c-15 13 -39 27 -85 27c-93 0 -153 -107 -153 -233c0 -67 27 -88 68 -88z" />
    <glyph glyph-name="r" unicode="r" horiz-adv-x="388" 
d="M-4 0l120 525h46c63 0 81 -35 78 -87c39 54 93 92 152 92c11 0 21 -2 30 -5l-27 -123h-18c-69 0 -121 -24 -154 -52l-80 -350h-147z" />
    <glyph glyph-name="s" unicode="s" horiz-adv-x="434" 
d="M164 -6c-92 0 -150 26 -182 50l23 99h47c22 -26 61 -46 116 -46c46 0 84 15 84 52c0 28 -21 39 -69 56c-88 31 -136 67 -136 148c0 110 81 177 213 177c79 0 132 -23 168 -49l-22 -92h-44c-22 20 -60 39 -108 39c-51 0 -76 -18 -76 -50c0 -24 18 -36 72 -55
c79 -28 137 -60 137 -144c0 -114 -85 -185 -223 -185z" />
    <glyph glyph-name="t" unicode="t" horiz-adv-x="347" 
d="M181 -8c-110 0 -153 65 -129 171l61 264h-57l21 98h58l32 140h146l-32 -140h94l-21 -98h-96l-61 -267c-10 -44 4 -68 59 -68h25l-19 -87c-21 -8 -43 -13 -81 -13z" />
    <glyph glyph-name="u" unicode="u" horiz-adv-x="569" 
d="M410 0c-57 0 -79 29 -83 69c-53 -43 -107 -77 -183 -77c-91 0 -141 63 -114 177l83 356h97c34 0 45 -14 33 -65l-65 -291c-9 -42 4 -62 36 -62c35 0 75 15 123 45l85 373h146l-120 -525h-38z" />
    <glyph glyph-name="v" unicode="v" horiz-adv-x="518" 
d="M132 0l-70 487v38h139l42 -356h2l179 356h120v-38l-266 -487h-146z" />
    <glyph glyph-name="w" unicode="w" horiz-adv-x="770" 
d="M105 0l-40 487v38h137l20 -331h2l155 331h112l32 -331h2l147 331h117v-38l-238 -487h-126l-35 327h-2l-153 -327h-130z" />
    <glyph glyph-name="x" unicode="x" horiz-adv-x="522" 
d="M-25 0v38l200 237l-90 212v38h139l63 -160l131 160h120v-38l-187 -217l104 -232v-38h-139l-76 179l-145 -179h-120z" />
    <glyph glyph-name="y" unicode="y" horiz-adv-x="518" 
d="M17 -162v39l121 179l-76 431v38h137l48 -313h2l175 313h120v-38l-394 -649h-133z" />
    <glyph glyph-name="z" unicode="z" horiz-adv-x="474" 
d="M-34 0l23 101l315 321h-226l24 103h399l-23 -102l-318 -320h237l-24 -103h-407z" />
    <glyph glyph-name="braceleft" unicode="{" horiz-adv-x="367" 
d="M193 -49c-108 0 -153 50 -132 139l38 163c8 33 -4 55 -39 55h-28l23 96h23c40 0 60 20 68 55l36 154c19 82 56 128 154 128h113l-23 -96h-74c-19 0 -29 -11 -34 -31l-35 -154c-13 -54 -43 -93 -115 -107v-3c63 -18 76 -59 63 -116l-36 -156c-5 -20 1 -31 22 -31h71
l-22 -96h-73z" />
    <glyph glyph-name="bar" unicode="|" horiz-adv-x="250" 
d="M90 -49l1 790h115l-1 -790h-115z" />
    <glyph glyph-name="braceright" unicode="}" horiz-adv-x="367" 
d="M-39 -49l23 96h74c19 0 29 11 34 31l37 164c13 54 43 93 115 107v3c-63 18 -76 59 -63 116l34 146c5 20 -1 31 -22 31h-71l22 96h73c108 0 153 -50 132 -139l-36 -153c-8 -33 4 -55 39 -55h28l-23 -96h-23c-40 0 -60 -20 -68 -55l-38 -164c-19 -82 -56 -128 -154 -128
h-113z" />
    <glyph glyph-name="asciitilde" unicode="~" horiz-adv-x="394" 
d="M24 215v45c17 62 59 106 122 106c53 0 96 -27 120 -27c20 0 31 9 39 30h81v-45c-17 -64 -59 -106 -122 -106c-47 0 -96 27 -120 27c-20 0 -31 -9 -39 -30h-81z" />
    <glyph glyph-name="exclamdown" unicode="&#xa1;" horiz-adv-x="264" 
d="M220 422l-67 -408l-20 -86h-156l20 86l131 408h92zM205 634c46 0 78 -35 78 -78c0 -47 -41 -83 -87 -83c-47 0 -79 36 -79 78c0 48 42 83 88 83z" />
    <glyph glyph-name="cent" unicode="&#xa2;" horiz-adv-x="517" 
d="M183 -103l23 102c-120 22 -179 103 -179 214c0 178 132 309 303 319l13 57h89l-14 -60c47 -6 77 -20 104 -40l-22 -94h-53c-11 12 -28 23 -53 28l-75 -324c37 4 61 15 82 29h54l-23 -99c-30 -19 -72 -33 -138 -36l-22 -96h-89zM171 216c0 -57 21 -94 60 -110l73 314
c-87 -24 -133 -108 -133 -204z" />
    <glyph glyph-name="sterling" unicode="&#xa3;" horiz-adv-x="510" 
d="M36 299l23 102h44c-2 38 -1 77 8 115c30 129 133 192 272 192c75 0 138 -17 183 -57l-23 -104h-53c-27 26 -59 44 -112 44c-50 0 -101 -27 -115 -87c-8 -33 -9 -67 -10 -103h167l-23 -102h-146c-2 -23 -5 -46 -10 -69c-11 -44 -35 -83 -64 -108h299l-28 -122h-480l23 103
c50 17 94 61 108 118c6 26 8 52 8 78h-71z" />
    <glyph glyph-name="fraction" unicode="&#x2044;" horiz-adv-x="222" 
d="M-237 -34l629 763h109l-629 -763h-109z" />
    <glyph glyph-name="yen" unicode="&#xa5;" horiz-adv-x="582" 
d="M64 299l20 87h124l-92 270v44h141l82 -268h2l191 268h120v-44l-205 -270h127l-20 -87h-169l-12 -55h168l-20 -87h-168l-36 -157h-154l36 157h-168l20 87h168l12 55h-167z" />
    <glyph glyph-name="florin" unicode="&#x192;" horiz-adv-x="377" 
d="M50 346l23 98h64l29 121c25 107 98 145 195 145c35 0 55 -7 73 -16l-19 -85h-22c-41 0 -67 -8 -77 -49l-28 -116h93l-23 -98h-93l-105 -446h-151l105 446h-64z" />
    <glyph glyph-name="section" unicode="&#xa7;" horiz-adv-x="524" 
d="M180 -131c-95 0 -150 29 -188 54l23 98h49c25 -25 65 -49 119 -49c60 0 88 19 88 52c0 34 -28 54 -106 83c-98 35 -143 82 -143 158c0 85 58 131 136 151c-26 26 -37 59 -37 106c0 107 91 186 230 186c91 0 137 -23 173 -45l-22 -98h-52c-23 18 -52 36 -101 36
c-57 0 -94 -22 -94 -57c0 -33 15 -50 96 -77c107 -36 162 -76 162 -163c0 -60 -35 -127 -137 -154c27 -25 41 -55 41 -96c0 -111 -82 -185 -237 -185zM236 224c22 -9 43 -16 61 -25c51 14 77 36 77 73c0 36 -28 55 -85 75c-19 6 -36 12 -51 19c-54 -8 -79 -37 -79 -70
c0 -29 20 -51 77 -72z" />
    <glyph glyph-name="quotesingle" unicode="'" horiz-adv-x="188" 
d="M102 476l10 151l17 73h136l-17 -73l-60 -151h-86z" />
    <glyph glyph-name="quotedblleft" unicode="&#x201c;" horiz-adv-x="388" 
d="M155 453c-43 0 -77 31 -77 78c0 107 79 167 196 172l-15 -65c-41 -4 -69 -17 -69 -36c0 -12 7 -14 20 -23c15 -10 24 -26 24 -47c0 -47 -37 -79 -79 -79zM350 453c-43 0 -77 31 -77 78c0 107 79 167 196 172l-15 -65c-41 -4 -69 -17 -69 -36c0 -12 7 -14 20 -23
c15 -10 24 -26 24 -47c0 -47 -37 -79 -79 -79z" />
    <glyph glyph-name="guillemotleft" unicode="&#xab;" horiz-adv-x="515" 
d="M110 40l-80 199l13 57l159 184h118v-32l-162 -194v-3l68 -179v-32h-116zM321 40l-80 199l13 57l159 184h118v-32l-162 -194v-3l68 -179v-32h-116z" />
    <glyph glyph-name="guilsinglleft" unicode="&#x2039;" horiz-adv-x="304" 
d="M110 40l-80 199l13 57l159 184h118v-32l-162 -194v-3l68 -179v-32h-116z" />
    <glyph glyph-name="guilsinglright" unicode="&#x203a;" horiz-adv-x="304" 
d="M-13 40v32l162 194v3l-68 179v32h116l80 -199l-13 -57l-159 -184h-118z" />
    <glyph glyph-name="fi" unicode="&#xfb01;" horiz-adv-x="581" 
d="M22 0l93 427h-62l21 98h62l9 40c23 100 85 145 183 145c41 0 63 -5 81 -12l-19 -89h-22c-44 0 -69 -8 -78 -49l-8 -35h90l-21 -98h-91l-96 -427h-142zM318 0l120 525h80c46 0 63 -12 44 -96l-98 -429h-146zM532 567c-44 0 -74 33 -74 74c0 45 39 79 83 79s75 -34 75 -74
c0 -46 -40 -79 -84 -79z" />
    <glyph glyph-name="fl" unicode="&#xfb02;" horiz-adv-x="584" 
d="M22 0l93 427h-62l21 98h62l9 40c23 100 85 145 183 145c41 0 63 -5 81 -12l-19 -89h-22c-44 0 -69 -8 -78 -49l-8 -35h90l-21 -98h-91l-96 -427h-142zM318 0l160 700h88c38 0 55 -12 39 -82l-141 -618h-146z" />
    <glyph glyph-name="endash" unicode="&#x2013;" horiz-adv-x="457" 
d="M40 226l26 113h361l-26 -113h-361z" />
    <glyph glyph-name="dagger" unicode="&#x2020;" horiz-adv-x="469" 
d="M114 -49l50 318l14 61l54 100l-114 -31h-60l32 141h51l109 -32l-2 108l19 84h141l-21 -94l-50 -98l113 32h61l-32 -141h-52l-108 31l6 -111l-14 -62l-93 -306h-104z" />
    <glyph glyph-name="daggerdbl" unicode="&#x2021;" horiz-adv-x="469" 
d="M94 -49l22 94l50 98l-115 -32h-60l33 141h51l109 -31l-14 80l13 53l49 76l-114 -31h-60l32 141h51l109 -32l-2 108l19 84h141l-21 -94l-50 -98l113 32h61l-32 -141h-52l-108 31l13 -80l-12 -53l-49 -76l113 31h61l-33 -141h-52l-107 32l2 -108l-20 -84h-141z" />
    <glyph glyph-name="periodcentered" unicode="&#xb7;" horiz-adv-x="203" 
d="M105 215c-46 0 -78 35 -78 78c0 47 41 83 87 83c47 0 79 -36 79 -78c0 -48 -42 -83 -88 -83z" />
    <glyph glyph-name="paragraph" unicode="&#xb6;" horiz-adv-x="592" 
d="M171 -91l91 394h-3c-103 0 -183 61 -183 167c0 181 151 230 305 230h252l-183 -791h-104l160 689h-71l-160 -689h-104z" />
    <glyph glyph-name="bullet" unicode="&#x2022;" horiz-adv-x="320" 
d="M153 145c-70 0 -128 46 -128 122c0 91 69 148 151 148c69 0 127 -46 127 -122c0 -92 -66 -148 -150 -148z" />
    <glyph glyph-name="quotesinglbase" unicode="&#x201a;" horiz-adv-x="183" 
d="M-64 -99l15 65c41 4 69 17 69 36c0 12 -7 14 -20 23c-15 10 -24 26 -24 47c0 47 37 79 79 79c43 0 77 -31 77 -78c0 -107 -79 -167 -196 -172z" />
    <glyph glyph-name="quotedblbase" unicode="&#x201e;" horiz-adv-x="378" 
d="M-64 -99l15 65c41 4 69 17 69 36c0 12 -7 14 -20 23c-15 10 -24 26 -24 47c0 47 37 79 79 79c43 0 77 -31 77 -78c0 -107 -79 -167 -196 -172zM131 -99l15 65c41 4 69 17 69 36c0 12 -7 14 -20 23c-15 10 -24 26 -24 47c0 47 37 79 79 79c43 0 77 -31 77 -78
c0 -107 -79 -167 -196 -172z" />
    <glyph glyph-name="quotedblright" unicode="&#x201d;" horiz-adv-x="378" 
d="M57 457l15 65c41 4 69 17 69 36c0 12 -7 14 -20 23c-15 10 -24 26 -24 47c0 47 37 79 79 79c43 0 77 -31 77 -78c0 -107 -79 -167 -196 -172zM252 457l15 65c41 4 69 17 69 36c0 12 -7 14 -20 23c-15 10 -24 26 -24 47c0 47 37 79 79 79c43 0 77 -31 77 -78
c0 -107 -79 -167 -196 -172z" />
    <glyph glyph-name="guillemotright" unicode="&#xbb;" horiz-adv-x="515" 
d="M-13 40v32l162 194v3l-68 179v32h116l80 -199l-13 -57l-159 -184h-118zM198 40v32l162 194v3l-68 179v32h116l80 -199l-13 -57l-159 -184h-118z" />
    <glyph glyph-name="ellipsis" unicode="&#x2026;" horiz-adv-x="657" 
d="M60 -6c-46 0 -82 35 -82 80s36 81 82 81c45 0 82 -36 82 -81s-37 -80 -82 -80zM288 -6c-46 0 -82 35 -82 80s36 81 82 81c45 0 82 -36 82 -81s-37 -80 -82 -80zM516 -6c-46 0 -82 35 -82 80s36 81 82 81c45 0 82 -36 82 -81s-37 -80 -82 -80z" />
    <glyph glyph-name="perthousand" unicode="&#x2030;" horiz-adv-x="1208" 
d="M229 416c59 -1 84 90 84 144c0 34 -12 66 -51 66c-60 0 -85 -92 -85 -146c0 -34 12 -63 52 -64zM220 334c-92 0 -155 61 -155 149c0 118 85 225 205 225c92 0 155 -59 155 -151c0 -115 -86 -223 -205 -223zM60 -34l629 763h109l-629 -763h-109zM600 74c59 0 84 90 84 144
c0 34 -12 66 -51 66c-59 0 -85 -92 -85 -146c0 -34 12 -64 52 -64zM591 -8c-92 0 -155 60 -155 148c0 118 85 226 205 226c92 0 154 -59 154 -151c0 -115 -85 -223 -204 -223zM991 74c59 0 84 90 84 144c0 34 -12 66 -51 66c-59 0 -85 -92 -85 -146c0 -34 12 -64 52 -64z
M982 -8c-92 0 -155 60 -155 148c0 118 85 226 205 226c92 0 154 -59 154 -151c0 -115 -85 -223 -204 -223z" />
    <glyph glyph-name="questiondown" unicode="&#xbf;" horiz-adv-x="449" 
d="M369 422c-7 -83 -23 -131 -107 -194c-47 -35 -113 -71 -113 -135c0 -42 31 -60 74 -60c44 0 80 15 109 35h57l-25 -109c-41 -24 -97 -40 -167 -40c-104 0 -202 40 -202 164c0 84 60 150 143 199c72 42 116 71 127 140h104zM344 634c46 0 78 -35 78 -78
c0 -47 -41 -83 -87 -83c-47 0 -79 36 -79 78c0 48 42 83 88 83z" />
    <glyph glyph-name="grave" unicode="`" 
d="M235 562l-88 96v42h138l38 -107v-31h-88z" />
    <glyph glyph-name="acute" unicode="&#xb4;" 
d="M230 562v31l52 107h142v-42l-115 -96h-79z" />
    <glyph glyph-name="circumflex" unicode="&#x2c6;" 
d="M140 562v37l106 101h100l72 -101v-37h-82l-51 47l-71 -47h-74z" />
    <glyph glyph-name="tilde" unicode="&#x2dc;" 
d="M331 565c-47 0 -79 28 -104 28c-19 0 -29 -10 -36 -29h-75v38c21 62 57 94 110 94c47 0 80 -26 105 -26c18 0 27 10 35 27h75v-38c-21 -62 -57 -94 -110 -94z" />
    <glyph glyph-name="macron" unicode="&#xaf;" 
d="M146 584l23 98h260l-23 -98h-260z" />
    <glyph glyph-name="breve" unicode="&#x2d8;" 
d="M283 563c-81 0 -122 49 -128 100v37h93c0 -25 10 -42 38 -42s43 16 48 42h91v-37c-15 -51 -63 -100 -142 -100z" />
    <glyph glyph-name="dotaccent" unicode="&#x2d9;" 
d="M284 567c-44 0 -74 33 -74 74c0 45 39 79 83 79s75 -34 75 -74c0 -46 -40 -79 -84 -79z" />
    <glyph glyph-name="dieresis" unicode="&#xa8;" 
d="M188 566c-42 0 -70 32 -70 71c0 43 37 76 79 76s71 -33 71 -71c0 -44 -38 -76 -80 -76zM380 566c-42 0 -70 32 -70 71c0 43 37 76 79 76s71 -33 71 -71c0 -44 -38 -76 -80 -76z" />
    <glyph glyph-name="ring" unicode="&#x2da;" 
d="M292 628c23 0 40 17 40 42c0 22 -14 35 -35 35c-23 0 -38 -17 -38 -44c0 -20 12 -33 33 -33zM291 566c-56 0 -101 35 -101 94c0 65 52 107 109 107c56 0 101 -36 101 -96c0 -65 -52 -105 -109 -105z" />
    <glyph glyph-name="cedilla" unicode="&#xb8;" 
d="M113 -175c-44 0 -64 7 -83 20l13 56h29c5 -8 15 -14 35 -14c17 0 31 5 31 19c0 11 -8 18 -32 18h-26l18 76h69l-6 -24c44 -2 65 -30 65 -65c0 -67 -57 -86 -113 -86z" />
    <glyph glyph-name="hungarumlaut" unicode="&#x2dd;" 
d="M153 562v28l46 110h115v-42l-89 -96h-72zM316 562v28l46 110h115v-42l-89 -96h-72z" />
    <glyph glyph-name="ogonek" unicode="&#x2db;" 
d="M134 -165c-54 0 -86 30 -86 73c0 45 37 76 72 92h88c-30 -19 -50 -35 -50 -57c0 -16 10 -24 37 -24h19l-16 -67c-17 -10 -39 -17 -64 -17z" />
    <glyph glyph-name="caron" unicode="&#x2c7;" 
d="M227 562l-72 101v37h82l51 -47l71 47h74v-37l-106 -101h-100z" />
    <glyph glyph-name="emdash" unicode="&#x2014;" horiz-adv-x="767" 
d="M40 226l26 113h671l-26 -113h-671z" />
    <glyph glyph-name="AE" unicode="&#xc6;" horiz-adv-x="932" 
d="M-43 0v41l468 659h555l-26 -113h-290l-41 -178h214l-25 -107h-214l-44 -192h313l-25 -110h-469l43 187h-208l-128 -187h-123zM484 587l-202 -293h158l68 293h-24z" />
    <glyph glyph-name="ordfeminine" unicode="&#xaa;" horiz-adv-x="447" 
d="M418 258h-42c-36 0 -61 15 -69 49c-31 -37 -75 -54 -126 -54c-78 0 -123 47 -123 120c0 103 84 153 201 153c30 0 60 -4 84 -10l3 11c14 62 -12 84 -63 84c-41 0 -82 -10 -115 -29h-40l23 96c42 18 95 30 159 30c128 0 198 -57 167 -193zM233 337c30 0 55 15 77 32l17 74
c-17 5 -37 8 -57 8c-52 0 -82 -24 -82 -68c0 -31 17 -46 45 -46z" />
    <glyph glyph-name="Lslash" unicode="&#x141;" horiz-adv-x="534" 
d="M-13 202l25 112l70 24l83 362h156l-70 -302l201 71l-25 -112l-202 -71l-40 -176h282l-25 -110h-438l52 226z" />
    <glyph glyph-name="Oslash" unicode="&#xd8;" horiz-adv-x="730" 
d="M345 -8c-69 0 -128 18 -175 49l-54 -60h-97v27l85 94c-38 51 -59 115 -59 186c0 218 145 420 375 420c70 0 131 -19 179 -52l50 55h97v-27l-81 -91c36 -49 56 -112 56 -181c0 -208 -134 -420 -376 -420zM201 284c0 -24 1 -46 5 -67l311 347c-22 22 -55 36 -100 36
c-151 0 -216 -192 -216 -316zM352 99c150 0 213 187 213 316c0 21 -2 41 -5 61l-310 -346c23 -20 56 -31 102 -31z" />
    <glyph glyph-name="OE" unicode="&#x152;" horiz-adv-x="965" 
d="M45 279c0 208 130 421 391 421h577l-26 -113h-290l-41 -178h214l-25 -107h-214l-44 -192h313l-25 -110h-516c-217 0 -314 95 -314 279zM205 279c0 -96 25 -169 157 -169h69l110 478h-101c-184 0 -235 -183 -235 -309z" />
    <glyph glyph-name="ordmasculine" unicode="&#xba;" horiz-adv-x="520" 
d="M288 347c58 0 119 64 119 175c0 55 -26 94 -79 94c-56 0 -119 -59 -119 -178c0 -61 32 -91 79 -91zM283 252c-125 0 -209 76 -209 190c0 165 124 266 257 266c116 0 211 -67 211 -190c0 -166 -128 -266 -259 -266z" />
    <glyph glyph-name="ae" unicode="&#xe6;" horiz-adv-x="800" 
d="M158 -6c-96 0 -155 49 -155 141c0 114 90 183 228 183h94l1 5c16 69 -4 105 -69 105c-53 0 -92 -11 -129 -32h-42l24 104c46 19 96 33 172 33c73 0 123 -19 149 -60c45 37 102 60 166 60c125 0 182 -75 181 -189c0 -35 -6 -74 -17 -114h-310v-20c0 -84 34 -115 101 -115
c49 0 91 13 129 37h47l-22 -98c-38 -20 -94 -41 -170 -41c-89 0 -155 30 -192 84c-39 -47 -96 -83 -186 -83zM309 208c0 7 -1 14 0 22h-69c-66 0 -100 -34 -100 -85c0 -38 20 -60 58 -60c47 0 90 27 117 62c-4 19 -6 39 -6 61zM586 440c-61 0 -103 -48 -123 -122h185
c3 14 4 27 4 39c0 56 -25 83 -66 83z" />
    <glyph glyph-name="dotlessi" unicode="&#x131;" horiz-adv-x="260" 
d="M-3 0l120 525h80c46 0 63 -12 44 -96l-98 -429h-146z" />
    <glyph glyph-name="lslash" unicode="&#x142;" horiz-adv-x="263" 
d="M-2 264l24 107l67 32l68 297h88c38 0 55 -12 39 -82l-31 -137l71 34l-25 -107l-71 -34l-85 -374h-146l67 296z" />
    <glyph glyph-name="oslash" unicode="&#xf8;" horiz-adv-x="569" 
d="M257 -6c-49 0 -91 9 -125 27l-40 -46h-83v27l61 70c-28 37 -43 85 -43 142c0 194 133 319 286 319c50 0 94 -11 128 -31l35 40h84v-27l-58 -67c26 -37 40 -85 40 -140c0 -194 -124 -314 -285 -314zM165 211c0 -10 0 -19 1 -27l199 230c-15 11 -34 16 -56 16
c-89 0 -144 -109 -144 -219zM262 94c92 0 141 105 141 217c0 8 -1 15 -1 22l-196 -226c15 -9 33 -13 56 -13z" />
    <glyph glyph-name="oe" unicode="&#x153;" horiz-adv-x="881" 
d="M257 -6c-146 0 -230 85 -230 220c0 194 133 319 286 319c84 0 142 -35 173 -94c44 58 108 94 192 94c125 0 182 -75 181 -189c0 -35 -6 -74 -17 -114h-310v-20c0 -84 34 -115 101 -115c49 0 91 13 129 37h47l-22 -98c-38 -20 -94 -41 -170 -41c-89 0 -145 31 -175 89
c-47 -57 -112 -88 -185 -88zM262 95c89 0 137 104 137 216c0 84 -36 118 -90 118c-86 0 -139 -108 -139 -218c0 -84 36 -116 92 -116zM667 440c-61 0 -103 -48 -123 -122h185c3 14 4 27 4 39c0 56 -25 83 -66 83z" />
    <glyph glyph-name="germandbls" unicode="&#xdf;" horiz-adv-x="601" 
d="M364 -6c-67 0 -113 17 -146 40l22 98h44c16 -22 51 -32 83 -32c46 0 64 21 64 39c0 28 -22 38 -63 61c-63 35 -91 67 -91 120c0 60 43 102 95 146c51 43 75 62 75 92c0 27 -24 50 -72 50c-78 0 -105 -49 -116 -98l-117 -510h-146l118 515c23 108 103 195 271 195
c115 0 203 -54 203 -144c0 -62 -30 -96 -94 -138c-44 -29 -87 -57 -87 -80c0 -18 14 -27 58 -53c69 -41 100 -81 100 -142c0 -98 -75 -159 -201 -159z" />
    <glyph glyph-name="trademark" unicode="&#x2122;" horiz-adv-x="684" 
d="M347 420l65 280h123l9 -152h1l80 152h127l-65 -280h-81l50 213h-1l-115 -213h-59l-14 213h-1l-50 -213h-69zM143 420l51 220h-80l14 60h244l-14 -60h-81l-51 -220h-83z" />
    <glyph glyph-name="Eth" unicode="&#xd0;" horiz-adv-x="694" 
d="M11 295l24 107h61l69 298h215c190 0 303 -102 303 -286c0 -208 -130 -414 -391 -414h-288l68 295h-61zM185 110h102c184 0 236 178 236 304c0 96 -34 174 -146 174h-82l-43 -186h149l-24 -107h-150z" />
    <glyph glyph-name="onehalf" unicode="&#xbd;" horiz-adv-x="773" 
d="M110 315l62 270l-58 -27h-22l20 86l119 56h85l-89 -385h-117zM7 -34l629 763h109l-629 -763h-109zM403 0l20 87l119 86c48 34 85 65 85 98c0 22 -13 35 -43 35s-56 -12 -74 -26h-38l19 83c32 18 69 28 117 28c91 0 137 -43 137 -107c0 -62 -47 -105 -131 -159l-64 -41
h154l-20 -84h-281z" />
    <glyph glyph-name="Thorn" unicode="&#xde;" horiz-adv-x="591" 
d="M4 0l161 700h156l-30 -129h53c162 0 244 -69 244 -191c0 -159 -118 -242 -311 -242h-86l-31 -138h-156zM215 243h70c98 0 153 42 153 142c0 47 -26 74 -105 74h-68z" />
    <glyph glyph-name="onequarter" unicode="&#xbc;" horiz-adv-x="726" 
d="M110 315l62 270l-58 -27h-22l20 86l119 56h85l-89 -385h-117zM7 -34l629 763h109l-629 -763h-109zM501 0l18 79h-175l20 85l226 221h106l-54 -233h40l-17 -73h-40l-18 -79h-106zM442 152h95l28 119h-3l-120 -117v-2z" />
    <glyph glyph-name="divide" unicode="&#xf7;" horiz-adv-x="509" 
d="M236 86c-46 0 -78 35 -78 78c0 47 41 83 87 83c47 0 79 -36 79 -78c0 -48 -42 -83 -88 -83zM22 288l27 115h477l-27 -115h-477zM301 444c-46 0 -78 35 -78 78c0 47 41 83 87 83c47 0 79 -36 79 -78c0 -48 -42 -83 -88 -83z" />
    <glyph glyph-name="brokenbar" unicode="&#xa6;" horiz-adv-x="249" 
d="M90 -49v357h115v-357h-115zM90 393v348h115v-348h-115z" />
    <glyph glyph-name="degree" unicode="&#xb0;" horiz-adv-x="348" 
d="M236 491c41 0 74 29 74 79c0 40 -26 69 -66 69c-41 0 -72 -29 -72 -79c0 -40 24 -69 64 -69zM232 424c-80 0 -139 57 -139 135c0 92 75 147 155 147s139 -57 139 -135c0 -93 -75 -147 -155 -147z" />
    <glyph glyph-name="thorn" unicode="&#xfe;" horiz-adv-x="576" 
d="M-40 -162l196 862h89c38 0 55 -12 39 -82l-34 -151c39 38 94 66 160 66c75 0 145 -56 145 -194c0 -213 -113 -333 -270 -333c-63 0 -103 20 -129 44l-48 -212h-148zM344 425c-38 0 -74 -17 -114 -45l-56 -247c15 -14 40 -30 83 -30c102 0 153 97 153 233
c0 59 -27 89 -66 89z" />
    <glyph glyph-name="threequarters" unicode="&#xbe;" horiz-adv-x="772" 
d="M184 309c-54 0 -102 15 -136 43l16 70h39c12 -14 37 -36 76 -36c33 0 56 16 56 44c0 27 -16 42 -53 42h-30l17 72h41c36 0 54 18 54 42c0 27 -14 39 -46 39c-28 0 -50 -11 -66 -20h-38l17 75c24 14 66 27 110 27c78 0 134 -31 134 -104c0 -54 -35 -85 -94 -97v-2
c38 -9 66 -36 66 -80c0 -73 -70 -115 -163 -115zM59 -34l629 763h109l-629 -763h-109zM547 0l18 79h-175l20 85l226 221h106l-54 -233h40l-17 -73h-40l-18 -79h-106zM488 152h95l28 119h-3l-120 -117v-2z" />
    <glyph glyph-name="registered" unicode="&#xae;" horiz-adv-x="386" 
d="M254 350c-96 0 -184 66 -184 179c0 114 88 179 184 179c95 0 184 -65 184 -179c0 -113 -89 -179 -184 -179zM254 386c79 0 142 48 142 143s-63 143 -142 143s-142 -48 -142 -143s63 -143 142 -143zM286 441l-32 63h-17v-63h-57v185h80c51 0 76 -21 76 -61
c0 -22 -11 -39 -29 -49l33 -57v-18h-54zM237 541h18c18 0 24 9 24 25c0 14 -6 23 -24 23h-18v-48z" />
    <glyph glyph-name="minus" unicode="&#x2212;" horiz-adv-x="509" 
d="M22 288l27 115h477l-27 -115h-477z" />
    <glyph glyph-name="eth" unicode="&#xf0;" horiz-adv-x="570" 
d="M199 529v24l45 38c-15 6 -31 12 -47 16l22 93h49c26 -7 50 -16 73 -27l30 26h86v-24l-49 -42c86 -66 135 -166 135 -293c0 -230 -121 -346 -286 -346c-148 0 -230 88 -230 220c0 176 123 292 240 292c54 0 87 -16 110 -44c-13 34 -36 64 -66 88l-25 -21h-87zM262 95
c92 0 137 107 137 205c0 71 -37 107 -95 107c-90 0 -134 -96 -134 -201c0 -69 30 -111 92 -111z" />
    <glyph glyph-name="multiply" unicode="&#xd7;" horiz-adv-x="513" 
d="M93 116l-65 78l173 148l-115 148l89 72l112 -146l171 146l63 -78l-172 -148l114 -148l-87 -72l-113 146z" />
    <glyph glyph-name="copyright" unicode="&#xa9;" horiz-adv-x="780" 
d="M423 154c-125 0 -199 73 -199 197c0 123 88 199 204 199c61 0 96 -14 120 -26v-84h-45c-15 14 -37 28 -75 28c-55 0 -90 -41 -90 -118c0 -80 33 -114 88 -114c45 0 68 15 83 29h40v-76c-23 -15 -66 -35 -126 -35zM412 43c165 0 297 111 297 307s-132 307 -297 307
s-297 -111 -297 -307s132 -307 297 -307zM412 -8c-191 0 -359 127 -359 358s168 358 359 358s359 -127 359 -358s-168 -358 -359 -358z" />
    <glyph glyph-name="Aacute" unicode="&#xc1;" horiz-adv-x="665" 
d="M-34 0v41l372 659h167l87 -659v-41h-153l-20 185h-233l-97 -185h-123zM378 550l-136 -258h165l-27 258h-2zM374 722v31l47 97h142v-42l-110 -86h-79z" />
    <glyph glyph-name="Acircumflex" unicode="&#xc2;" horiz-adv-x="665" 
d="M-34 0v41l372 659h167l87 -659v-41h-153l-20 185h-233l-97 -185h-123zM278 722v37l105 95h100l73 -95v-37h-82l-52 42l-70 -42h-74zM378 550l-136 -258h165l-27 258h-2z" />
    <glyph glyph-name="Adieresis" unicode="&#xc4;" horiz-adv-x="665" 
d="M-34 0v41l372 659h167l87 -659v-41h-153l-20 185h-233l-97 -185h-123zM378 550l-136 -258h165l-27 258h-2zM333 722c-42 0 -70 32 -70 71c0 43 37 76 79 76s71 -33 71 -71c0 -44 -38 -76 -80 -76zM525 722c-42 0 -70 32 -70 71c0 43 37 76 79 76s71 -33 71 -71
c0 -44 -38 -76 -80 -76z" />
    <glyph glyph-name="Agrave" unicode="&#xc0;" horiz-adv-x="665" 
d="M-34 0v41l372 659h167l87 -659v-41h-153l-20 185h-233l-97 -185h-123zM378 550l-136 -258h165l-27 258h-2zM472 722h-88l-84 86v42h138l34 -97v-31z" />
    <glyph glyph-name="Aring" unicode="&#xc5;" horiz-adv-x="665" 
d="M-34 0v41l372 659h167l87 -659v-41h-153l-20 185h-233l-97 -185h-123zM440 724c-56 0 -101 35 -101 94c0 65 52 107 109 107c56 0 101 -36 101 -96c0 -65 -52 -105 -109 -105zM378 550l-136 -258h165l-27 258h-2zM441 786c23 0 40 17 40 42c0 22 -14 35 -35 35
c-23 0 -38 -17 -38 -44c0 -20 12 -33 33 -33z" />
    <glyph glyph-name="Atilde" unicode="&#xc3;" horiz-adv-x="665" 
d="M-34 0v41l372 659h167l87 -659v-41h-153l-20 185h-233l-97 -185h-123zM479 723c-47 0 -79 28 -104 28c-19 0 -29 -10 -36 -29h-75v38c21 62 57 94 110 94c47 0 80 -26 105 -26c18 0 27 10 35 27h75v-38c-21 -62 -57 -94 -110 -94zM378 550l-136 -258h165l-27 258h-2z" />
    <glyph glyph-name="Ccedilla" unicode="&#xc7;" horiz-adv-x="617" 
d="M349 -8c-11 0 -23 1 -33 1l-4 -17c44 -2 65 -30 65 -65c0 -67 -57 -86 -113 -86c-44 0 -64 7 -83 20l13 56h29c5 -8 15 -14 35 -14c17 0 31 5 31 19c0 11 -8 18 -32 18h-26l18 78c-124 29 -204 117 -204 272c0 216 143 434 401 434c83 0 145 -17 194 -50l-24 -104h-55
c-29 26 -68 41 -122 41c-174 0 -235 -193 -235 -323c0 -120 57 -170 153 -170c56 0 100 18 139 45h59l-26 -113c-40 -23 -97 -42 -180 -42z" />
    <glyph glyph-name="Eacute" unicode="&#xc9;" horiz-adv-x="563" 
d="M4 0l161 700h446l-26 -113h-290l-41 -178h214l-25 -107h-214l-44 -192h313l-25 -110h-469zM342 722v31l47 97h142v-42l-110 -86h-79z" />
    <glyph glyph-name="Ecircumflex" unicode="&#xca;" horiz-adv-x="563" 
d="M4 0l161 700h446l-26 -113h-290l-41 -178h214l-25 -107h-214l-44 -192h313l-25 -110h-469zM246 722v37l105 95h100l73 -95v-37h-82l-52 42l-70 -42h-74z" />
    <glyph glyph-name="Edieresis" unicode="&#xcb;" horiz-adv-x="563" 
d="M4 0l161 700h446l-26 -113h-290l-41 -178h214l-25 -107h-214l-44 -192h313l-25 -110h-469zM301 722c-42 0 -70 32 -70 71c0 43 37 76 79 76s71 -33 71 -71c0 -44 -38 -76 -80 -76zM493 722c-42 0 -70 32 -70 71c0 43 37 76 79 76s71 -33 71 -71c0 -44 -38 -76 -80 -76z
" />
    <glyph glyph-name="Egrave" unicode="&#xc8;" horiz-adv-x="563" 
d="M4 0l161 700h446l-26 -113h-290l-41 -178h214l-25 -107h-214l-44 -192h313l-25 -110h-469zM440 722h-88l-84 86v42h138l34 -97v-31z" />
    <glyph glyph-name="Iacute" unicode="&#xcd;" horiz-adv-x="287" 
d="M7 0l161 700h157l-161 -700h-157zM203 722v31l47 97h142v-42l-110 -86h-79z" />
    <glyph glyph-name="Icircumflex" unicode="&#xce;" horiz-adv-x="287" 
d="M7 0l161 700h157l-161 -700h-157zM107 722v37l105 95h100l73 -95v-37h-82l-52 42l-70 -42h-74z" />
    <glyph glyph-name="Idieresis" unicode="&#xcf;" horiz-adv-x="287" 
d="M7 0l161 700h157l-161 -700h-157zM162 722c-42 0 -70 32 -70 71c0 43 37 76 79 76s71 -33 71 -71c0 -44 -38 -76 -80 -76zM354 722c-42 0 -70 32 -70 71c0 43 37 76 79 76s71 -33 71 -71c0 -44 -38 -76 -80 -76z" />
    <glyph glyph-name="Igrave" unicode="&#xcc;" horiz-adv-x="287" 
d="M7 0l161 700h157l-161 -700h-157zM301 722h-88l-84 86v42h138l34 -97v-31z" />
    <glyph glyph-name="Ntilde" unicode="&#xd1;" horiz-adv-x="686" 
d="M4 0l161 700h177l147 -448h3l104 448h131l-161 -700h-142l-170 509h-3l-117 -509h-130zM530 723c-47 0 -79 28 -104 28c-19 0 -29 -10 -36 -29h-75v38c21 62 57 94 110 94c47 0 80 -26 105 -26c18 0 27 10 35 27h75v-38c-21 -62 -57 -94 -110 -94z" />
    <glyph glyph-name="Oacute" unicode="&#xd3;" horiz-adv-x="730" 
d="M350 100c149 0 212 186 212 315c0 93 -33 185 -145 185c-151 0 -213 -192 -213 -316c0 -103 40 -184 146 -184zM345 -8c-185 0 -300 120 -300 296c0 218 145 420 375 420c184 0 301 -121 301 -296c0 -208 -135 -420 -376 -420zM389 722v31l47 97h142v-42l-110 -86h-79z
" />
    <glyph glyph-name="Ocircumflex" unicode="&#xd4;" horiz-adv-x="730" 
d="M350 100c149 0 212 186 212 315c0 93 -33 185 -145 185c-151 0 -213 -192 -213 -316c0 -103 40 -184 146 -184zM345 -8c-185 0 -300 120 -300 296c0 218 145 420 375 420c184 0 301 -121 301 -296c0 -208 -135 -420 -376 -420zM293 722v37l105 95h100l73 -95v-37h-82
l-52 42l-70 -42h-74z" />
    <glyph glyph-name="Odieresis" unicode="&#xd6;" horiz-adv-x="730" 
d="M350 100c149 0 212 186 212 315c0 93 -33 185 -145 185c-151 0 -213 -192 -213 -316c0 -103 40 -184 146 -184zM345 -8c-185 0 -300 120 -300 296c0 218 145 420 375 420c184 0 301 -121 301 -296c0 -208 -135 -420 -376 -420zM348 722c-42 0 -70 32 -70 71
c0 43 37 76 79 76s71 -33 71 -71c0 -44 -38 -76 -80 -76zM540 722c-42 0 -70 32 -70 71c0 43 37 76 79 76s71 -33 71 -71c0 -44 -38 -76 -80 -76z" />
    <glyph glyph-name="Ograve" unicode="&#xd2;" horiz-adv-x="730" 
d="M350 100c149 0 212 186 212 315c0 93 -33 185 -145 185c-151 0 -213 -192 -213 -316c0 -103 40 -184 146 -184zM345 -8c-185 0 -300 120 -300 296c0 218 145 420 375 420c184 0 301 -121 301 -296c0 -208 -135 -420 -376 -420zM487 722h-88l-84 86v42h138l34 -97v-31z
" />
    <glyph glyph-name="Otilde" unicode="&#xd5;" horiz-adv-x="730" 
d="M350 100c149 0 212 186 212 315c0 93 -33 185 -145 185c-151 0 -213 -192 -213 -316c0 -103 40 -184 146 -184zM345 -8c-185 0 -300 120 -300 296c0 218 145 420 375 420c184 0 301 -121 301 -296c0 -208 -135 -420 -376 -420zM500 723c-47 0 -79 28 -104 28
c-19 0 -29 -10 -36 -29h-75v38c21 62 57 94 110 94c47 0 80 -26 105 -26c18 0 27 10 35 27h75v-38c-21 -62 -57 -94 -110 -94z" />
    <glyph glyph-name="Scaron" unicode="&#x160;" horiz-adv-x="530" 
d="M222 -8c-113 0 -187 36 -230 75l24 107h52c32 -41 80 -71 160 -71c60 0 121 24 121 97c0 52 -43 67 -120 97c-94 36 -149 89 -149 187c0 142 101 224 253 224c88 0 157 -26 209 -67l-24 -101h-51c-38 36 -78 57 -143 57c-54 0 -105 -25 -105 -87c0 -50 30 -64 116 -97
c94 -36 160 -81 160 -189c0 -151 -108 -232 -273 -232zM495 854v-37l-105 -95h-100l-73 95v37h82l52 -42l70 42h74z" />
    <glyph glyph-name="Uacute" unicode="&#xda;" horiz-adv-x="666" 
d="M310 -8c-186 0 -290 106 -247 291l96 417h156l-101 -436c-20 -86 2 -157 109 -157c85 0 131 42 155 146l103 447h130l-105 -456c-35 -150 -117 -252 -296 -252zM401 722v31l47 97h142v-42l-110 -86h-79z" />
    <glyph glyph-name="Ucircumflex" unicode="&#xdb;" horiz-adv-x="666" 
d="M310 -8c-186 0 -290 106 -247 291l96 417h156l-101 -436c-20 -86 2 -157 109 -157c85 0 131 42 155 146l103 447h130l-105 -456c-35 -150 -117 -252 -296 -252zM305 722v37l105 95h100l73 -95v-37h-82l-52 42l-70 -42h-74z" />
    <glyph glyph-name="Udieresis" unicode="&#xdc;" horiz-adv-x="666" 
d="M310 -8c-186 0 -290 106 -247 291l96 417h156l-101 -436c-20 -86 2 -157 109 -157c85 0 131 42 155 146l103 447h130l-105 -456c-35 -150 -117 -252 -296 -252zM348 722c-42 0 -70 32 -70 71c0 43 37 76 79 76s71 -33 71 -71c0 -44 -38 -76 -80 -76zM540 722
c-42 0 -70 32 -70 71c0 43 37 76 79 76s71 -33 71 -71c0 -44 -38 -76 -80 -76z" />
    <glyph glyph-name="Ugrave" unicode="&#xd9;" horiz-adv-x="666" 
d="M310 -8c-186 0 -290 106 -247 291l96 417h156l-101 -436c-20 -86 2 -157 109 -157c85 0 131 42 155 146l103 447h130l-105 -456c-35 -150 -117 -252 -296 -252zM499 722h-88l-84 86v42h138l34 -97v-31z" />
    <glyph glyph-name="Yacute" unicode="&#xdd;" horiz-adv-x="592" 
d="M166 0l65 281l-124 375v44h145l88 -290h2l210 290h119v-44l-288 -390l-61 -266h-156zM359 722v31l47 97h142v-42l-110 -86h-79z" />
    <glyph glyph-name="Ydieresis" unicode="&#x178;" horiz-adv-x="592" 
d="M166 0l65 281l-124 375v44h145l88 -290h2l210 290h119v-44l-288 -390l-61 -266h-156zM318 722c-42 0 -70 32 -70 71c0 43 37 76 79 76s71 -33 71 -71c0 -44 -38 -76 -80 -76zM510 722c-42 0 -70 32 -70 71c0 43 37 76 79 76s71 -33 71 -71c0 -44 -38 -76 -80 -76z" />
    <glyph glyph-name="Zcaron" unicode="&#x17d;" horiz-adv-x="558" 
d="M-31 0l27 118l425 467v4h-291l26 111h472l-28 -121l-426 -467v-4h317l-24 -108h-498zM550 854v-37l-105 -95h-100l-73 95v37h82l52 -42l70 42h74z" />
    <glyph glyph-name="aacute" unicode="&#xe1;" horiz-adv-x="509" 
d="M351 0c-32 0 -61 15 -72 50c-32 -33 -77 -56 -134 -56c-83 0 -142 49 -142 141c0 114 90 181 228 181c45 0 70 -5 91 -12l4 19c16 69 -4 105 -69 105c-53 0 -92 -11 -129 -32h-42l24 104c46 19 96 33 172 33c147 0 223 -68 187 -225l-71 -308h-47zM198 85
c35 0 59 16 83 39l22 100c-16 4 -36 8 -63 8c-66 0 -100 -36 -100 -87c0 -38 20 -60 58 -60zM259 562v31l52 107h142v-42l-115 -96h-79z" />
    <glyph glyph-name="acircumflex" unicode="&#xe2;" horiz-adv-x="509" 
d="M351 0c-32 0 -61 15 -72 50c-32 -33 -77 -56 -134 -56c-83 0 -142 49 -142 141c0 114 90 181 228 181c45 0 70 -5 91 -12l4 19c16 69 -4 105 -69 105c-53 0 -92 -11 -129 -32h-42l24 104c46 19 96 33 172 33c147 0 223 -68 187 -225l-71 -308h-47zM165 562v37l106 101
h100l72 -101v-37h-82l-51 47l-71 -47h-74zM198 85c35 0 59 16 83 39l22 100c-16 4 -36 8 -63 8c-66 0 -100 -36 -100 -87c0 -38 20 -60 58 -60z" />
    <glyph glyph-name="adieresis" unicode="&#xe4;" horiz-adv-x="509" 
d="M351 0c-32 0 -61 15 -72 50c-32 -33 -77 -56 -134 -56c-83 0 -142 49 -142 141c0 114 90 181 228 181c45 0 70 -5 91 -12l4 19c16 69 -4 105 -69 105c-53 0 -92 -11 -129 -32h-42l24 104c46 19 96 33 172 33c147 0 223 -68 187 -225l-71 -308h-47zM198 85
c35 0 59 16 83 39l22 100c-16 4 -36 8 -63 8c-66 0 -100 -36 -100 -87c0 -38 20 -60 58 -60zM217 566c-42 0 -70 32 -70 71c0 43 37 76 79 76s71 -33 71 -71c0 -44 -38 -76 -80 -76zM409 566c-42 0 -70 32 -70 71c0 43 37 76 79 76s71 -33 71 -71c0 -44 -38 -76 -80 -76z
" />
    <glyph glyph-name="agrave" unicode="&#xe0;" horiz-adv-x="509" 
d="M351 0c-32 0 -61 15 -72 50c-32 -33 -77 -56 -134 -56c-83 0 -142 49 -142 141c0 114 90 181 228 181c45 0 70 -5 91 -12l4 19c16 69 -4 105 -69 105c-53 0 -92 -11 -129 -32h-42l24 104c46 19 96 33 172 33c147 0 223 -68 187 -225l-71 -308h-47zM198 85
c35 0 59 16 83 39l22 100c-16 4 -36 8 -63 8c-66 0 -100 -36 -100 -87c0 -38 20 -60 58 -60zM264 562l-88 96v42h138l38 -107v-31h-88z" />
    <glyph glyph-name="aring" unicode="&#xe5;" horiz-adv-x="509" 
d="M351 0c-32 0 -61 15 -72 50c-32 -33 -77 -56 -134 -56c-83 0 -142 49 -142 141c0 114 90 181 228 181c45 0 70 -5 91 -12l4 19c16 69 -4 105 -69 105c-53 0 -92 -11 -129 -32h-42l24 104c46 19 96 33 172 33c147 0 223 -68 187 -225l-71 -308h-47zM318 566
c-56 0 -101 35 -101 94c0 65 52 107 109 107c56 0 101 -36 101 -96c0 -65 -52 -105 -109 -105zM198 85c35 0 59 16 83 39l22 100c-16 4 -36 8 -63 8c-66 0 -100 -36 -100 -87c0 -38 20 -60 58 -60zM319 628c23 0 40 17 40 42c0 22 -14 35 -35 35c-23 0 -38 -17 -38 -44
c0 -20 12 -33 33 -33z" />
    <glyph glyph-name="atilde" unicode="&#xe3;" horiz-adv-x="509" 
d="M351 0c-32 0 -61 15 -72 50c-32 -33 -77 -56 -134 -56c-83 0 -142 49 -142 141c0 114 90 181 228 181c45 0 70 -5 91 -12l4 19c16 69 -4 105 -69 105c-53 0 -92 -11 -129 -32h-42l24 104c46 19 96 33 172 33c147 0 223 -68 187 -225l-71 -308h-47zM371 565
c-47 0 -79 28 -104 28c-19 0 -29 -10 -36 -29h-75v38c21 62 57 94 110 94c47 0 80 -26 105 -26c18 0 27 10 35 27h75v-38c-21 -62 -57 -94 -110 -94zM198 85c35 0 59 16 83 39l22 100c-16 4 -36 8 -63 8c-66 0 -100 -36 -100 -87c0 -38 20 -60 58 -60z" />
    <glyph glyph-name="ccedilla" unicode="&#xe7;" horiz-adv-x="484" 
d="M263 -7h-15l-4 -17c44 -2 65 -30 65 -65c0 -67 -57 -86 -113 -86c-44 0 -64 7 -83 20l13 56h29c5 -8 15 -14 35 -14c17 0 31 5 31 19c0 11 -8 18 -32 18h-26l18 78c-104 25 -154 101 -154 207c0 192 138 324 316 324c69 0 117 -16 154 -44l-22 -94h-53
c-15 18 -42 32 -83 32c-102 0 -168 -95 -168 -217c0 -76 35 -113 103 -113c46 0 75 13 102 31h54l-23 -99c-33 -21 -80 -36 -144 -36z" />
    <glyph glyph-name="eacute" unicode="&#xe9;" horiz-adv-x="515" 
d="M251 -7c-145 0 -227 74 -227 215c0 170 105 325 280 325c127 0 190 -75 189 -189c0 -35 -6 -74 -17 -114h-310v-20c0 -84 35 -115 101 -115c49 0 91 13 129 37h47l-23 -101c-38 -21 -93 -38 -169 -38zM265 562v31l52 107h142v-42l-115 -96h-79zM295 440
c-58 0 -98 -48 -117 -122h185c3 14 4 27 4 39c0 56 -28 83 -72 83z" />
    <glyph glyph-name="ecircumflex" unicode="&#xea;" horiz-adv-x="515" 
d="M251 -7c-145 0 -227 74 -227 215c0 170 105 325 280 325c127 0 190 -75 189 -189c0 -35 -6 -74 -17 -114h-310v-20c0 -84 35 -115 101 -115c49 0 91 13 129 37h47l-23 -101c-38 -21 -93 -38 -169 -38zM174 562v37l106 101h100l72 -101v-37h-82l-51 47l-71 -47h-74z
M295 440c-58 0 -98 -48 -117 -122h185c3 14 4 27 4 39c0 56 -28 83 -72 83z" />
    <glyph glyph-name="edieresis" unicode="&#xeb;" horiz-adv-x="515" 
d="M251 -7c-145 0 -227 74 -227 215c0 170 105 325 280 325c127 0 190 -75 189 -189c0 -35 -6 -74 -17 -114h-310v-20c0 -84 35 -115 101 -115c49 0 91 13 129 37h47l-23 -101c-38 -21 -93 -38 -169 -38zM295 440c-58 0 -98 -48 -117 -122h185c3 14 4 27 4 39
c0 56 -28 83 -72 83zM223 566c-42 0 -70 32 -70 71c0 43 37 76 79 76s71 -33 71 -71c0 -44 -38 -76 -80 -76zM415 566c-42 0 -70 32 -70 71c0 43 37 76 79 76s71 -33 71 -71c0 -44 -38 -76 -80 -76z" />
    <glyph glyph-name="egrave" unicode="&#xe8;" horiz-adv-x="515" 
d="M251 -7c-145 0 -227 74 -227 215c0 170 105 325 280 325c127 0 190 -75 189 -189c0 -35 -6 -74 -17 -114h-310v-20c0 -84 35 -115 101 -115c49 0 91 13 129 37h47l-23 -101c-38 -21 -93 -38 -169 -38zM295 440c-58 0 -98 -48 -117 -122h185c3 14 4 27 4 39
c0 56 -28 83 -72 83zM270 562l-88 96v42h138l38 -107v-31h-88z" />
    <glyph glyph-name="iacute" unicode="&#xed;" horiz-adv-x="260" 
d="M-3 0l120 525h80c46 0 63 -12 44 -96l-98 -429h-146zM144 562v31l52 107h142v-42l-115 -96h-79z" />
    <glyph glyph-name="icircumflex" unicode="&#xee;" horiz-adv-x="260" 
d="M-3 0l120 525h80c46 0 63 -12 44 -96l-98 -429h-146zM50 562v37l106 101h100l72 -101v-37h-82l-51 47l-71 -47h-74z" />
    <glyph glyph-name="idieresis" unicode="&#xef;" horiz-adv-x="260" 
d="M-3 0l120 525h80c46 0 63 -12 44 -96l-98 -429h-146zM102 566c-42 0 -70 32 -70 71c0 43 37 76 79 76s71 -33 71 -71c0 -44 -38 -76 -80 -76zM294 566c-42 0 -70 32 -70 71c0 43 37 76 79 76s71 -33 71 -71c0 -44 -38 -76 -80 -76z" />
    <glyph glyph-name="igrave" unicode="&#xec;" horiz-adv-x="260" 
d="M-3 0l120 525h80c46 0 63 -12 44 -96l-98 -429h-146zM149 562l-88 96v42h138l38 -107v-31h-88z" />
    <glyph glyph-name="ntilde" unicode="&#xf1;" horiz-adv-x="572" 
d="M-4 0l120 525h48c55 0 74 -27 76 -68c54 43 112 76 195 76c82 0 133 -67 108 -177l-82 -356h-97c-34 0 -45 14 -33 65l65 291c9 42 -4 61 -36 61c-37 0 -80 -15 -134 -48l-84 -369h-146zM408 565c-47 0 -79 28 -104 28c-19 0 -29 -10 -36 -29h-75v38c21 62 57 94 110 94
c47 0 80 -26 105 -26c18 0 27 10 35 27h75v-38c-21 -62 -57 -94 -110 -94z" />
    <glyph glyph-name="oacute" unicode="&#xf3;" horiz-adv-x="569" 
d="M262 95c89 0 137 104 137 216c0 84 -36 118 -90 118c-86 0 -139 -108 -139 -218c0 -84 36 -116 92 -116zM257 -6c-146 0 -230 85 -230 220c0 194 133 319 286 319c146 0 229 -90 229 -225c0 -194 -124 -314 -285 -314zM283 562v31l52 107h142v-42l-115 -96h-79z" />
    <glyph glyph-name="ocircumflex" unicode="&#xf4;" horiz-adv-x="569" 
d="M262 95c89 0 137 104 137 216c0 84 -36 118 -90 118c-86 0 -139 -108 -139 -218c0 -84 36 -116 92 -116zM257 -6c-146 0 -230 85 -230 220c0 194 133 319 286 319c146 0 229 -90 229 -225c0 -194 -124 -314 -285 -314zM189 562v37l106 101h100l72 -101v-37h-82l-51 47
l-71 -47h-74z" />
    <glyph glyph-name="odieresis" unicode="&#xf6;" horiz-adv-x="569" 
d="M262 95c89 0 137 104 137 216c0 84 -36 118 -90 118c-86 0 -139 -108 -139 -218c0 -84 36 -116 92 -116zM257 -6c-146 0 -230 85 -230 220c0 194 133 319 286 319c146 0 229 -90 229 -225c0 -194 -124 -314 -285 -314zM241 566c-42 0 -70 32 -70 71c0 43 37 76 79 76
s71 -33 71 -71c0 -44 -38 -76 -80 -76zM433 566c-42 0 -70 32 -70 71c0 43 37 76 79 76s71 -33 71 -71c0 -44 -38 -76 -80 -76z" />
    <glyph glyph-name="ograve" unicode="&#xf2;" horiz-adv-x="569" 
d="M262 95c89 0 137 104 137 216c0 84 -36 118 -90 118c-86 0 -139 -108 -139 -218c0 -84 36 -116 92 -116zM257 -6c-146 0 -230 85 -230 220c0 194 133 319 286 319c146 0 229 -90 229 -225c0 -194 -124 -314 -285 -314zM288 562l-88 96v42h138l38 -107v-31h-88z" />
    <glyph glyph-name="otilde" unicode="&#xf5;" horiz-adv-x="569" 
d="M262 95c89 0 137 104 137 216c0 84 -36 118 -90 118c-86 0 -139 -108 -139 -218c0 -84 36 -116 92 -116zM257 -6c-146 0 -230 85 -230 220c0 194 133 319 286 319c146 0 229 -90 229 -225c0 -194 -124 -314 -285 -314zM395 565c-47 0 -79 28 -104 28
c-19 0 -29 -10 -36 -29h-75v38c21 62 57 94 110 94c47 0 80 -26 105 -26c18 0 27 10 35 27h75v-38c-21 -62 -57 -94 -110 -94z" />
    <glyph glyph-name="scaron" unicode="&#x161;" horiz-adv-x="434" 
d="M164 -6c-92 0 -150 26 -182 50l23 99h47c22 -26 61 -46 116 -46c46 0 84 15 84 52c0 28 -21 39 -69 56c-88 31 -136 67 -136 148c0 110 81 177 213 177c79 0 132 -23 168 -49l-22 -92h-44c-22 20 -60 39 -108 39c-51 0 -76 -18 -76 -50c0 -24 18 -36 72 -55
c79 -28 137 -60 137 -144c0 -114 -85 -185 -223 -185zM212 562l-72 101v37h82l51 -47l71 47h74v-37l-106 -101h-100z" />
    <glyph glyph-name="uacute" unicode="&#xfa;" horiz-adv-x="569" 
d="M410 0c-57 0 -79 29 -83 69c-53 -43 -107 -77 -183 -77c-91 0 -141 63 -114 177l83 356h97c34 0 45 -14 33 -65l-65 -291c-9 -42 4 -62 36 -62c35 0 75 15 123 45l85 373h146l-120 -525h-38zM297 562v31l52 107h142v-42l-115 -96h-79z" />
    <glyph glyph-name="ucircumflex" unicode="&#xfb;" horiz-adv-x="569" 
d="M410 0c-57 0 -79 29 -83 69c-53 -43 -107 -77 -183 -77c-91 0 -141 63 -114 177l83 356h97c34 0 45 -14 33 -65l-65 -291c-9 -42 4 -62 36 -62c35 0 75 15 123 45l85 373h146l-120 -525h-38zM203 562v37l106 101h100l72 -101v-37h-82l-51 47l-71 -47h-74z" />
    <glyph glyph-name="udieresis" unicode="&#xfc;" horiz-adv-x="569" 
d="M410 0c-57 0 -79 29 -83 69c-53 -43 -107 -77 -183 -77c-91 0 -141 63 -114 177l83 356h97c34 0 45 -14 33 -65l-65 -291c-9 -42 4 -62 36 -62c35 0 75 15 123 45l85 373h146l-120 -525h-38zM447 566c-42 0 -70 32 -70 71c0 43 37 76 79 76s71 -33 71 -71
c0 -44 -38 -76 -80 -76zM255 566c-42 0 -70 32 -70 71c0 43 37 76 79 76s71 -33 71 -71c0 -44 -38 -76 -80 -76z" />
    <glyph glyph-name="ugrave" unicode="&#xf9;" horiz-adv-x="569" 
d="M410 0c-57 0 -79 29 -83 69c-53 -43 -107 -77 -183 -77c-91 0 -141 63 -114 177l83 356h97c34 0 45 -14 33 -65l-65 -291c-9 -42 4 -62 36 -62c35 0 75 15 123 45l85 373h146l-120 -525h-38zM302 562l-88 96v42h138l38 -107v-31h-88z" />
    <glyph glyph-name="yacute" unicode="&#xfd;" horiz-adv-x="518" 
d="M17 -162v39l121 179l-76 431v38h137l48 -313h2l175 313h120v-38l-394 -649h-133zM264 562v31l52 107h142v-42l-115 -96h-79z" />
    <glyph glyph-name="ydieresis" unicode="&#xff;" horiz-adv-x="518" 
d="M17 -162v39l121 179l-76 431v38h137l48 -313h2l175 313h120v-38l-394 -649h-133zM222 566c-42 0 -70 32 -70 71c0 43 37 76 79 76s71 -33 71 -71c0 -44 -38 -76 -80 -76zM414 566c-42 0 -70 32 -70 71c0 43 37 76 79 76s71 -33 71 -71c0 -44 -38 -76 -80 -76z" />
    <glyph glyph-name="zcaron" unicode="&#x17e;" horiz-adv-x="474" 
d="M-34 0l23 101l315 321h-226l24 103h399l-23 -102l-318 -320h237l-24 -103h-407zM258 562l-72 101v37h82l51 -47l71 47h74v-37l-106 -101h-100z" />
    <glyph glyph-name="oneeighth" unicode="&#x215b;" horiz-adv-x="783" 
d="M110 315l62 270l-58 -27h-22l20 86l119 56h85l-89 -385h-117zM0 -34l629 763h109l-629 -763h-109zM559 -8c-82 0 -156 34 -156 108c0 63 39 93 95 107v2c-27 11 -44 37 -44 68c0 69 61 113 155 113c80 0 139 -36 139 -105c0 -46 -31 -76 -76 -85v-2c35 -15 55 -41 55 -85
c0 -65 -60 -121 -168 -121zM562 63c33 0 60 28 60 59c0 28 -17 49 -51 49c-38 0 -62 -28 -62 -59c0 -32 24 -49 53 -49zM599 232c29 0 49 19 49 46s-16 43 -43 43c-28 0 -51 -22 -51 -50c0 -27 20 -39 45 -39z" />
    <glyph glyph-name="threeeighths" unicode="&#x215c;" horiz-adv-x="811" 
d="M184 309c-54 0 -102 15 -136 43l16 70h39c12 -14 37 -36 76 -36c33 0 56 16 56 44c0 27 -16 42 -53 42h-30l17 72h41c36 0 54 18 54 42c0 27 -14 39 -46 39c-28 0 -50 -11 -66 -20h-38l17 75c24 14 66 27 110 27c78 0 134 -31 134 -104c0 -54 -35 -85 -94 -97v-2
c38 -9 66 -36 66 -80c0 -73 -70 -115 -163 -115zM46 -34l629 763h109l-629 -763h-109zM587 -8c-82 0 -156 34 -156 108c0 63 39 93 95 107v2c-27 11 -44 37 -44 68c0 69 61 113 155 113c80 0 139 -36 139 -105c0 -46 -31 -76 -76 -85v-2c35 -15 55 -41 55 -85
c0 -65 -60 -121 -168 -121zM590 63c33 0 60 28 60 59c0 28 -17 49 -51 49c-38 0 -62 -28 -62 -59c0 -32 24 -49 53 -49zM627 232c29 0 49 19 49 46s-16 43 -43 43c-28 0 -51 -22 -51 -50c0 -27 20 -39 45 -39z" />
    <glyph glyph-name="fiveeighths" unicode="&#x215d;" horiz-adv-x="819" 
d="M173 310c-47 0 -95 15 -123 38l16 71h41c11 -13 30 -30 68 -30c45 0 71 24 71 60c0 26 -18 39 -43 39c-24 0 -40 -11 -51 -23h-63l54 235h247l-19 -84h-167l-18 -75h2c13 9 38 17 68 17c61 0 103 -37 103 -98c0 -95 -72 -150 -186 -150zM48 -34l629 763h109l-629 -763
h-109zM595 -8c-82 0 -156 34 -156 108c0 63 39 93 95 107v2c-27 11 -44 37 -44 68c0 69 61 113 155 113c80 0 139 -36 139 -105c0 -46 -31 -76 -76 -85v-2c35 -15 55 -41 55 -85c0 -65 -60 -121 -168 -121zM598 63c33 0 60 28 60 59c0 28 -17 49 -51 49
c-38 0 -62 -28 -62 -59c0 -32 24 -49 53 -49zM635 232c29 0 49 19 49 46s-16 43 -43 43c-28 0 -51 -22 -51 -50c0 -27 20 -39 45 -39z" />
    <glyph glyph-name="seveneighths" unicode="&#x215e;" horiz-adv-x="790" 
d="M92 315v33l198 262v2h-183l20 88h274l-21 -93l-181 -292h-107zM1 -34l629 763h109l-629 -763h-109zM566 -8c-82 0 -156 34 -156 108c0 63 39 93 95 107v2c-27 11 -44 37 -44 68c0 69 61 113 155 113c80 0 139 -36 139 -105c0 -46 -31 -76 -76 -85v-2
c35 -15 55 -41 55 -85c0 -65 -60 -121 -168 -121zM569 63c33 0 60 28 60 59c0 28 -17 49 -51 49c-38 0 -62 -28 -62 -59c0 -32 24 -49 53 -49zM606 232c29 0 49 19 49 46s-16 43 -43 43c-28 0 -51 -22 -51 -50c0 -27 20 -39 45 -39z" />
    <glyph glyph-name="onethird" unicode="&#x2153;" horiz-adv-x="765" 
d="M110 315l62 270l-58 -27h-22l20 86l119 56h85l-89 -385h-117zM-4 -34l629 763h109l-629 -763h-109zM540 -6c-54 0 -102 15 -136 43l16 70h39c12 -14 37 -36 76 -36c33 0 56 16 56 44c0 27 -16 42 -53 42h-30l17 72h41c36 0 54 18 54 42c0 27 -14 39 -46 39
c-28 0 -50 -11 -66 -20h-38l17 75c24 14 66 27 110 27c78 0 134 -31 134 -104c0 -54 -35 -85 -94 -97v-2c38 -9 66 -36 66 -80c0 -73 -70 -115 -163 -115z" />
    <glyph glyph-name="twothirds" unicode="&#x2154;" horiz-adv-x="838" 
d="M38 315l20 87l119 86c48 34 85 65 85 98c0 22 -13 35 -43 35s-56 -12 -74 -26h-38l19 83c32 18 69 28 117 28c91 0 137 -43 137 -107c0 -62 -47 -105 -131 -159l-64 -41h154l-20 -84h-281zM82 -34l629 763h109l-629 -763h-109zM613 -6c-54 0 -102 15 -136 43l16 70h39
c12 -14 37 -36 76 -36c33 0 56 16 56 44c0 27 -16 42 -53 42h-30l17 72h41c36 0 54 18 54 42c0 27 -14 39 -46 39c-28 0 -50 -11 -66 -20h-38l17 75c24 14 66 27 110 27c78 0 134 -31 134 -104c0 -54 -35 -85 -94 -97v-2c38 -9 66 -36 66 -80c0 -73 -70 -115 -163 -115z" />
    <glyph glyph-name="Euro" unicode="&#x20ac;" horiz-adv-x="597" 
d="M51 378l20 87h54c59 136 177 243 352 243c83 0 133 -15 176 -43l-24 -103h-56c-29 25 -59 34 -105 34c-90 0 -152 -53 -189 -131h195l-32 -87h-193c-4 -18 -7 -37 -9 -55h180l-32 -87h-152c3 -97 46 -134 129 -134c56 0 100 19 135 45h51l-24 -109
c-40 -24 -99 -46 -177 -46c-148 0 -262 76 -268 244h-64l20 87h49c2 18 5 37 10 55h-46z" />
    <glyph glyph-name="Dcroat" unicode="&#x110;" horiz-adv-x="694" 
d="M11 295l24 107h61l69 298h215c190 0 303 -102 303 -286c0 -208 -130 -414 -391 -414h-288l68 295h-61zM185 110h102c184 0 236 178 236 304c0 96 -34 174 -146 174h-82l-43 -186h149l-24 -107h-150z" />
    <glyph glyph-name="uni0237" unicode="&#x237;" horiz-adv-x="258" 
d="M-31 -168c-45 0 -65 6 -87 14l19 81h18c49 0 64 10 75 60l123 538h80c46 0 63 -12 44 -96l-103 -451c-25 -110 -81 -146 -169 -146z" />
    <glyph glyph-name="dcroat" unicode="&#x111;" horiz-adv-x="581" 
d="M426 0c-54 0 -78 28 -84 64c-37 -45 -89 -72 -158 -72c-85 0 -160 53 -160 193c0 195 116 347 279 347c60 0 98 -20 123 -49l18 78h-134l20 85h133l13 54h88c35 0 52 -13 45 -54h54l-20 -85h-53l-128 -561h-36zM238 93c37 0 69 14 109 43l58 256c-15 14 -38 31 -79 31
c-101 0 -157 -101 -157 -237c0 -62 19 -93 69 -93z" />
    <glyph glyph-name="Abreve" unicode="&#x102;" horiz-adv-x="665" 
d="M-34 0v41l372 659h167l87 -659v-41h-153l-20 185h-233l-97 -185h-123zM432 723c-81 0 -123 47 -129 92v37h93c0 -16 11 -34 39 -34s42 15 47 34h91v-37c-15 -45 -62 -92 -141 -92zM378 550l-136 -258h165l-27 258h-2z" />
    <glyph glyph-name="Amacron" unicode="&#x100;" horiz-adv-x="665" 
d="M-34 0v41l372 659h167l87 -659v-41h-153l-20 185h-233l-97 -185h-123zM296 734l23 98h260l-23 -98h-260zM378 550l-136 -258h165l-27 258h-2z" />
    <glyph glyph-name="Aogonek" unicode="&#x104;" horiz-adv-x="665" 
d="M502 -165c-54 0 -86 30 -86 73c0 45 37 76 72 92h-49l-20 185h-233l-97 -185h-123v41l372 659h167l87 -659v-36c-46 -24 -66 -40 -66 -62c0 -16 10 -24 37 -24h19l-16 -67c-17 -10 -39 -17 -64 -17zM378 550l-136 -258h165l-27 258h-2z" />
    <glyph glyph-name="Cacute" unicode="&#x106;" horiz-adv-x="617" 
d="M349 -8c-178 0 -304 88 -304 282c0 216 143 434 401 434c83 0 145 -17 194 -50l-24 -104h-55c-29 26 -68 41 -122 41c-174 0 -235 -193 -235 -323c0 -120 57 -170 153 -170c56 0 100 18 139 45h59l-26 -113c-40 -23 -97 -42 -180 -42zM386 722v31l47 97h142v-42l-110 -86
h-79z" />
    <glyph glyph-name="Ccaron" unicode="&#x10c;" horiz-adv-x="617" 
d="M349 -8c-178 0 -304 88 -304 282c0 216 143 434 401 434c83 0 145 -17 194 -50l-24 -104h-55c-29 26 -68 41 -122 41c-174 0 -235 -193 -235 -323c0 -120 57 -170 153 -170c56 0 100 18 139 45h59l-26 -113c-40 -23 -97 -42 -180 -42zM595 854v-37l-105 -95h-100l-73 95
v37h82l52 -42l70 42h74z" />
    <glyph glyph-name="Ccircumflex" unicode="&#x108;" horiz-adv-x="617" 
d="M349 -8c-178 0 -304 88 -304 282c0 216 143 434 401 434c83 0 145 -17 194 -50l-24 -104h-55c-29 26 -68 41 -122 41c-174 0 -235 -193 -235 -323c0 -120 57 -170 153 -170c56 0 100 18 139 45h59l-26 -113c-40 -23 -97 -42 -180 -42zM290 722v37l105 95h100l73 -95v-37
h-82l-52 42l-70 -42h-74z" />
    <glyph glyph-name="Cdotaccent" unicode="&#x10a;" horiz-adv-x="617" 
d="M349 -8c-178 0 -304 88 -304 282c0 216 143 434 401 434c83 0 145 -17 194 -50l-24 -104h-55c-29 26 -68 41 -122 41c-174 0 -235 -193 -235 -323c0 -120 57 -170 153 -170c56 0 100 18 139 45h59l-26 -113c-40 -23 -97 -42 -180 -42zM440 724c-44 0 -74 33 -74 74
c0 45 39 79 83 79s75 -34 75 -74c0 -46 -40 -79 -84 -79z" />
    <glyph glyph-name="Dcaron" unicode="&#x10e;" horiz-adv-x="692" 
d="M185 110h102c184 0 236 178 236 304c0 96 -34 174 -146 174h-82zM4 0l161 700h215c190 0 303 -102 303 -286c0 -208 -130 -414 -391 -414h-288zM565 854v-37l-105 -95h-100l-73 95v37h82l52 -42l70 42h74z" />
    <glyph glyph-name="Ebreve" unicode="&#x114;" horiz-adv-x="563" 
d="M4 0l161 700h446l-26 -113h-290l-41 -178h214l-25 -107h-214l-44 -192h313l-25 -110h-469zM396 723c-81 0 -123 47 -129 92v37h93c0 -16 11 -34 39 -34s42 15 47 34h91v-37c-15 -45 -62 -92 -141 -92z" />
    <glyph glyph-name="Ecaron" unicode="&#x11a;" horiz-adv-x="563" 
d="M4 0l161 700h446l-26 -113h-290l-41 -178h214l-25 -107h-214l-44 -192h313l-25 -110h-469zM551 854v-37l-105 -95h-100l-73 95v37h82l52 -42l70 42h74z" />
    <glyph glyph-name="Edotaccent" unicode="&#x116;" horiz-adv-x="563" 
d="M4 0l161 700h446l-26 -113h-290l-41 -178h214l-25 -107h-214l-44 -192h313l-25 -110h-469zM396 724c-44 0 -74 33 -74 74c0 45 39 79 83 79s75 -34 75 -74c0 -46 -40 -79 -84 -79z" />
    <glyph glyph-name="Emacron" unicode="&#x112;" horiz-adv-x="563" 
d="M4 0l161 700h446l-26 -113h-290l-41 -178h214l-25 -107h-214l-44 -192h313l-25 -110h-469zM264 734l23 98h260l-23 -98h-260z" />
    <glyph glyph-name="Eogonek" unicode="&#x118;" horiz-adv-x="563" 
d="M4 0l161 700h446l-26 -113h-290l-41 -178h214l-25 -107h-214l-44 -192h313l-25 -110h-51c-30 -19 -50 -35 -50 -57c0 -16 10 -24 37 -24h19l-16 -67c-17 -10 -39 -17 -64 -17c-54 0 -86 30 -86 73c0 45 37 76 72 92h-330z" />
    <glyph glyph-name="Gbreve" unicode="&#x11e;" horiz-adv-x="668" 
d="M352 -8c-173 0 -307 81 -307 275c0 222 141 441 404 441c83 0 151 -16 206 -52l-25 -107h-53c-34 31 -75 46 -138 46c-171 0 -236 -189 -236 -332c0 -103 44 -164 156 -164c27 0 49 3 68 9l36 156h-97l23 101h250l-75 -327c-42 -25 -119 -46 -212 -46zM466 723
c-81 0 -123 47 -129 92v37h93c0 -16 11 -34 39 -34s42 15 47 34h91v-37c-15 -45 -62 -92 -141 -92z" />
    <glyph glyph-name="Gcircumflex" unicode="&#x11c;" horiz-adv-x="668" 
d="M352 -8c-173 0 -307 81 -307 275c0 222 141 441 404 441c83 0 151 -16 206 -52l-25 -107h-53c-34 31 -75 46 -138 46c-171 0 -236 -189 -236 -332c0 -103 44 -164 156 -164c27 0 49 3 68 9l36 156h-97l23 101h250l-75 -327c-42 -25 -119 -46 -212 -46zM312 722v37l105 95
h100l73 -95v-37h-82l-52 42l-70 -42h-74z" />
    <glyph glyph-name="Gcommaaccent" unicode="&#x122;" horiz-adv-x="668" 
d="M352 -8c-173 0 -307 81 -307 275c0 222 141 441 404 441c83 0 151 -16 206 -52l-25 -107h-53c-34 31 -75 46 -138 46c-171 0 -236 -189 -236 -332c0 -103 44 -164 156 -164c27 0 49 3 68 9l36 156h-97l23 101h250l-75 -327c-42 -25 -119 -46 -212 -46zM178 -221l13 58
c34 3 53 13 53 25c0 7 -4 11 -13 18c-12 9 -19 20 -19 38c0 38 30 64 64 64c35 0 63 -25 63 -66c0 -87 -67 -133 -161 -137z" />
    <glyph glyph-name="Gdotaccent" unicode="&#x120;" horiz-adv-x="668" 
d="M352 -8c-173 0 -307 81 -307 275c0 222 141 441 404 441c83 0 151 -16 206 -52l-25 -107h-53c-34 31 -75 46 -138 46c-171 0 -236 -189 -236 -332c0 -103 44 -164 156 -164c27 0 49 3 68 9l36 156h-97l23 101h250l-75 -327c-42 -25 -119 -46 -212 -46zM462 724
c-44 0 -74 33 -74 74c0 45 39 79 83 79s75 -34 75 -74c0 -46 -40 -79 -84 -79z" />
    <glyph glyph-name="Hbar" unicode="&#x126;" horiz-adv-x="693" 
d="M62 498l23 98h56l24 104h156l-24 -104h257l24 104h156l-24 -104h56l-23 -98h-56l-114 -498h-156l69 303h-257l-69 -303h-156l114 498h-56zM255 412h257l19 86h-257z" />
    <glyph glyph-name="Hcircumflex" unicode="&#x124;" horiz-adv-x="693" 
d="M4 0l161 700h156l-66 -288h257l66 288h156l-161 -700h-156l70 302h-258l-69 -302h-156zM311 722v37l105 95h100l73 -95v-37h-82l-52 42l-70 -42h-74z" />
    <glyph glyph-name="Idotaccent" unicode="&#x130;" horiz-adv-x="287" 
d="M7 0l161 700h157l-161 -700h-157zM257 724c-44 0 -74 33 -74 74c0 45 39 79 83 79s75 -34 75 -74c0 -46 -40 -79 -84 -79z" />
    <glyph glyph-name="Imacron" unicode="&#x12a;" horiz-adv-x="287" 
d="M7 0l161 700h157l-161 -700h-157zM125 734l23 98h260l-23 -98h-260z" />
    <glyph glyph-name="Iogonek" unicode="&#x12e;" horiz-adv-x="287" 
d="M7 0l161 700h157l-161 -700h-15c-30 -19 -50 -35 -50 -57c0 -16 10 -24 37 -24h19l-16 -67c-17 -10 -39 -17 -64 -17c-54 0 -86 30 -86 73c0 45 37 76 72 92h-54z" />
    <glyph glyph-name="Jcircumflex" unicode="&#x134;" horiz-adv-x="457" 
d="M141 -8c-84 0 -137 23 -169 46l24 104h51c15 -19 44 -38 87 -38c55 0 81 29 93 82l118 514h157l-124 -537c-24 -102 -96 -171 -237 -171zM291 722v37l105 95h100l73 -95v-37h-82l-52 42l-70 -42h-74z" />
    <glyph glyph-name="Kcommaaccent" unicode="&#x136;" horiz-adv-x="653" 
d="M4 0l161 700h156l-74 -322l318 322h132v-42l-260 -253l147 -363v-42h-146l-119 300l-115 -110l-44 -190h-156zM178 -221l13 58c34 3 53 13 53 25c0 7 -4 11 -13 18c-12 9 -19 20 -19 38c0 38 30 64 64 64c35 0 63 -25 63 -66c0 -87 -67 -133 -161 -137z" />
    <glyph glyph-name="Lacute" unicode="&#x139;" horiz-adv-x="534" 
d="M4 0l161 700h156l-136 -590h282l-25 -110h-438zM207 722v31l47 97h142v-42l-110 -86h-79z" />
    <glyph glyph-name="Lcaron" unicode="&#x13d;" horiz-adv-x="534" 
d="M365 563l32 137h114v-42l-73 -95h-73zM4 0l161 700h156l-136 -590h282l-25 -110h-438z" />
    <glyph glyph-name="Lcommaaccent" unicode="&#x13b;" horiz-adv-x="534" 
d="M4 0l161 700h156l-136 -590h282l-25 -110h-438zM115 -221l13 58c34 3 53 13 53 25c0 7 -4 11 -13 18c-12 9 -19 20 -19 38c0 38 30 64 64 64c35 0 63 -25 63 -66c0 -87 -67 -133 -161 -137z" />
    <glyph glyph-name="Nacute" unicode="&#x143;" horiz-adv-x="686" 
d="M4 0l161 700h177l147 -448h3l104 448h131l-161 -700h-142l-170 509h-3l-117 -509h-130zM419 722v31l47 97h142v-42l-110 -86h-79z" />
    <glyph glyph-name="Ncaron" unicode="&#x147;" horiz-adv-x="686" 
d="M4 0l161 700h177l147 -448h3l104 448h131l-161 -700h-142l-170 509h-3l-117 -509h-130zM628 854v-37l-105 -95h-100l-73 95v37h82l52 -42l70 42h74z" />
    <glyph glyph-name="Ncommaaccent" unicode="&#x145;" horiz-adv-x="686" 
d="M4 0l161 700h177l147 -448h3l104 448h131l-161 -700h-142l-170 509h-3l-117 -509h-130zM171 -221l13 58c34 3 53 13 53 25c0 7 -4 11 -13 18c-12 9 -19 20 -19 38c0 38 30 64 64 64c35 0 63 -25 63 -66c0 -87 -67 -133 -161 -137z" />
    <glyph glyph-name="Ohungarumlaut" unicode="&#x150;" horiz-adv-x="730" 
d="M350 100c149 0 212 186 212 315c0 93 -33 185 -145 185c-151 0 -213 -192 -213 -316c0 -103 40 -184 146 -184zM345 -8c-185 0 -300 120 -300 296c0 218 145 420 375 420c184 0 301 -121 301 -296c0 -208 -135 -420 -376 -420zM302 722v28l40 100h115v-42l-83 -86h-72z
M465 722v28l40 100h115v-42l-83 -86h-72z" />
    <glyph glyph-name="Omacron" unicode="&#x14c;" horiz-adv-x="730" 
d="M350 100c149 0 212 186 212 315c0 93 -33 185 -145 185c-151 0 -213 -192 -213 -316c0 -103 40 -184 146 -184zM345 -8c-185 0 -300 120 -300 296c0 218 145 420 375 420c184 0 301 -121 301 -296c0 -208 -135 -420 -376 -420zM311 734l23 98h260l-23 -98h-260z" />
    <glyph glyph-name="Racute" unicode="&#x154;" horiz-adv-x="628" 
d="M415 0l-108 274h-84l-63 -274h-156l161 700h212c164 0 243 -72 243 -201c0 -103 -68 -176 -169 -208l105 -250v-41h-141zM247 379h80c92 0 143 42 143 128c0 49 -25 81 -104 81h-71zM339 722v31l47 97h142v-42l-110 -86h-79z" />
    <glyph glyph-name="Rcaron" unicode="&#x158;" horiz-adv-x="628" 
d="M415 0l-108 274h-84l-63 -274h-156l161 700h212c164 0 243 -72 243 -201c0 -103 -68 -176 -169 -208l105 -250v-41h-141zM247 379h80c92 0 143 42 143 128c0 49 -25 81 -104 81h-71zM548 854v-37l-105 -95h-100l-73 95v37h82l52 -42l70 42h74z" />
    <glyph glyph-name="Rcommaaccent" unicode="&#x156;" horiz-adv-x="628" 
d="M415 0l-108 274h-84l-63 -274h-156l161 700h212c164 0 243 -72 243 -201c0 -103 -68 -176 -169 -208l105 -250v-41h-141zM247 379h80c92 0 143 42 143 128c0 49 -25 81 -104 81h-71zM173 -221l13 58c34 3 53 13 53 25c0 7 -4 11 -13 18c-12 9 -19 20 -19 38
c0 38 30 64 64 64c35 0 63 -25 63 -66c0 -87 -67 -133 -161 -137z" />
    <glyph glyph-name="Sacute" unicode="&#x15a;" horiz-adv-x="530" 
d="M222 -8c-113 0 -187 36 -230 75l24 107h52c32 -41 80 -71 160 -71c60 0 121 24 121 97c0 52 -43 67 -120 97c-94 36 -149 89 -149 187c0 142 101 224 253 224c88 0 157 -26 209 -67l-24 -101h-51c-38 36 -78 57 -143 57c-54 0 -105 -25 -105 -87c0 -50 30 -64 116 -97
c94 -36 160 -81 160 -189c0 -151 -108 -232 -273 -232zM300 722v31l47 97h142v-42l-110 -86h-79z" />
    <glyph glyph-name="Scedilla" unicode="&#x15e;" horiz-adv-x="530" 
d="M183 -175c-44 0 -64 7 -83 20l13 56h29c5 -8 15 -14 35 -14c17 0 31 5 31 19c0 11 -8 18 -32 18h-26l16 71c-82 9 -139 40 -174 72l24 107h52c32 -41 80 -71 160 -71c60 0 121 24 121 97c0 52 -43 67 -120 97c-94 36 -149 89 -149 187c0 142 101 224 253 224
c88 0 157 -26 209 -67l-24 -101h-51c-38 36 -78 57 -143 57c-54 0 -105 -25 -105 -87c0 -50 30 -64 116 -97c94 -36 160 -81 160 -189c0 -147 -102 -228 -260 -232l-4 -16c44 -2 65 -30 65 -65c0 -67 -57 -86 -113 -86z" />
    <glyph glyph-name="Scircumflex" unicode="&#x15c;" horiz-adv-x="530" 
d="M222 -8c-113 0 -187 36 -230 75l24 107h52c32 -41 80 -71 160 -71c60 0 121 24 121 97c0 52 -43 67 -120 97c-94 36 -149 89 -149 187c0 142 101 224 253 224c88 0 157 -26 209 -67l-24 -101h-51c-38 36 -78 57 -143 57c-54 0 -105 -25 -105 -87c0 -50 30 -64 116 -97
c94 -36 160 -81 160 -189c0 -151 -108 -232 -273 -232zM211 722v37l105 95h100l73 -95v-37h-82l-52 42l-70 -42h-74z" />
    <glyph glyph-name="Scommaaccent" unicode="&#x218;" horiz-adv-x="530" 
d="M222 -8c-113 0 -187 36 -230 75l24 107h52c32 -41 80 -71 160 -71c60 0 121 24 121 97c0 52 -43 67 -120 97c-94 36 -149 89 -149 187c0 142 101 224 253 224c88 0 157 -26 209 -67l-24 -101h-51c-38 36 -78 57 -143 57c-54 0 -105 -25 -105 -87c0 -50 30 -64 116 -97
c94 -36 160 -81 160 -189c0 -151 -108 -232 -273 -232zM114 -221l13 58c34 3 53 13 53 25c0 7 -4 11 -13 18c-12 9 -19 20 -19 38c0 38 30 64 64 64c35 0 63 -25 63 -66c0 -87 -67 -133 -161 -137z" />
    <glyph glyph-name="Tcaron" unicode="&#x164;" horiz-adv-x="571" 
d="M148 0l136 590h-187l25 110h530l-25 -110h-187l-136 -590h-156zM542 854v-37l-105 -95h-100l-73 95v37h82l52 -42l70 42h74z" />
    <glyph glyph-name="Tcommaaccent" unicode="&#x162;" horiz-adv-x="571" 
d="M148 0l136 590h-187l25 110h530l-25 -110h-187l-136 -590h-156zM113 -221l13 58c34 3 53 13 53 25c0 7 -4 11 -13 18c-12 9 -19 20 -19 38c0 38 30 64 64 64c35 0 63 -25 63 -66c0 -87 -67 -133 -161 -137z" />
    <glyph glyph-name="Ubreve" unicode="&#x16c;" horiz-adv-x="666" 
d="M310 -8c-186 0 -290 106 -247 291l96 417h156l-101 -436c-20 -86 2 -157 109 -157c85 0 131 42 155 146l103 447h130l-105 -456c-35 -150 -117 -252 -296 -252zM459 723c-81 0 -123 47 -129 92v37h93c0 -16 11 -34 39 -34s42 15 47 34h91v-37c-15 -45 -62 -92 -141 -92z
" />
    <glyph glyph-name="Uhungarumlaut" unicode="&#x170;" horiz-adv-x="666" 
d="M310 -8c-186 0 -290 106 -247 291l96 417h156l-101 -436c-20 -86 2 -157 109 -157c85 0 131 42 155 146l103 447h130l-105 -456c-35 -150 -117 -252 -296 -252zM314 722v28l40 100h115v-42l-83 -86h-72zM477 722v28l40 100h115v-42l-83 -86h-72z" />
    <glyph glyph-name="Umacron" unicode="&#x16a;" horiz-adv-x="666" 
d="M310 -8c-186 0 -290 106 -247 291l96 417h156l-101 -436c-20 -86 2 -157 109 -157c85 0 131 42 155 146l103 447h130l-105 -456c-35 -150 -117 -252 -296 -252zM323 734l23 98h260l-23 -98h-260z" />
    <glyph glyph-name="Uogonek" unicode="&#x172;" horiz-adv-x="666" 
d="M303 -165c-54 0 -86 30 -86 73c0 40 28 68 59 86c-165 12 -254 115 -213 289l96 417h156l-101 -436c-20 -86 2 -157 109 -157c85 0 131 42 155 146l103 447h130l-105 -456c-28 -120 -81 -205 -199 -240c-30 -9 -51 -16 -65 -30c-9 -9 -15 -19 -15 -31
c0 -16 10 -24 37 -24h19l-16 -67c-17 -10 -39 -17 -64 -17z" />
    <glyph glyph-name="Uring" unicode="&#x16e;" horiz-adv-x="666" 
d="M310 -8c-186 0 -290 106 -247 291l96 417h156l-101 -436c-20 -86 2 -157 109 -157c85 0 131 42 155 146l103 447h130l-105 -456c-35 -150 -117 -252 -296 -252zM450 694c-56 0 -101 35 -101 94c0 65 52 107 109 107c56 0 101 -36 101 -96c0 -65 -52 -105 -109 -105z
M451 756c23 0 40 17 40 42c0 22 -14 35 -35 35c-23 0 -38 -17 -38 -44c0 -20 12 -33 33 -33z" />
    <glyph glyph-name="Zacute" unicode="&#x179;" horiz-adv-x="558" 
d="M-31 0l27 118l425 467v4h-291l26 111h472l-28 -121l-426 -467v-4h317l-24 -108h-498zM341 722v31l47 97h142v-42l-110 -86h-79z" />
    <glyph glyph-name="Zdotaccent" unicode="&#x17b;" horiz-adv-x="558" 
d="M-31 0l27 118l425 467v4h-291l26 111h472l-28 -121l-426 -467v-4h317l-24 -108h-498zM395 724c-44 0 -74 33 -74 74c0 45 39 79 83 79s75 -34 75 -74c0 -46 -40 -79 -84 -79z" />
    <glyph glyph-name="abreve" unicode="&#x103;" horiz-adv-x="509" 
d="M351 0c-32 0 -61 15 -72 50c-32 -33 -77 -56 -134 -56c-83 0 -142 49 -142 141c0 114 90 181 228 181c45 0 70 -5 91 -12l4 19c16 69 -4 105 -69 105c-53 0 -92 -11 -129 -32h-42l24 104c46 19 96 33 172 33c147 0 223 -68 187 -225l-71 -308h-47zM313 563
c-81 0 -122 49 -128 100v37h93c0 -25 10 -42 38 -42s43 16 48 42h91v-37c-15 -51 -63 -100 -142 -100zM198 85c35 0 59 16 83 39l22 100c-16 4 -36 8 -63 8c-66 0 -100 -36 -100 -87c0 -38 20 -60 58 -60z" />
    <glyph glyph-name="amacron" unicode="&#x101;" horiz-adv-x="509" 
d="M351 0c-32 0 -61 15 -72 50c-32 -33 -77 -56 -134 -56c-83 0 -142 49 -142 141c0 114 90 181 228 181c45 0 70 -5 91 -12l4 19c16 69 -4 105 -69 105c-53 0 -92 -11 -129 -32h-42l24 104c46 19 96 33 172 33c147 0 223 -68 187 -225l-71 -308h-47zM181 584l23 98h260
l-23 -98h-260zM198 85c35 0 59 16 83 39l22 100c-16 4 -36 8 -63 8c-66 0 -100 -36 -100 -87c0 -38 20 -60 58 -60z" />
    <glyph glyph-name="aogonek" unicode="&#x105;" horiz-adv-x="509" 
d="M320 -165c-54 0 -86 30 -86 73c0 42 32 78 84 98c-18 8 -32 22 -39 44c-32 -33 -77 -56 -134 -56c-83 0 -142 49 -142 141c0 114 90 181 228 181c45 0 70 -5 91 -12l4 19c16 69 -4 105 -69 105c-53 0 -92 -11 -129 -32h-42l24 104c46 19 96 33 172 33
c147 0 223 -68 187 -225l-71 -308c-34 -19 -54 -35 -54 -57c0 -16 10 -24 37 -24h19l-16 -67c-17 -10 -39 -17 -64 -17zM198 85c35 0 59 16 83 39l22 100c-16 4 -36 8 -63 8c-66 0 -100 -36 -100 -87c0 -38 20 -60 58 -60z" />
    <glyph glyph-name="cacute" unicode="&#x107;" horiz-adv-x="484" 
d="M263 -7c-160 0 -236 86 -236 216c0 192 138 324 316 324c69 0 117 -16 154 -44l-22 -94h-53c-15 18 -42 32 -83 32c-102 0 -168 -95 -168 -217c0 -76 35 -113 103 -113c46 0 75 13 102 31h54l-23 -99c-33 -21 -80 -36 -144 -36zM284 562v31l52 107h142v-42l-115 -96h-79z
" />
    <glyph glyph-name="ccaron" unicode="&#x10d;" horiz-adv-x="484" 
d="M263 -7c-160 0 -236 86 -236 216c0 192 138 324 316 324c69 0 117 -16 154 -44l-22 -94h-53c-15 18 -42 32 -83 32c-102 0 -168 -95 -168 -217c0 -76 35 -113 103 -113c46 0 75 13 102 31h54l-23 -99c-33 -21 -80 -36 -144 -36zM284 562l-72 101v37h82l51 -47l71 47h74
v-37l-106 -101h-100z" />
    <glyph glyph-name="ccircumflex" unicode="&#x109;" horiz-adv-x="484" 
d="M263 -7c-160 0 -236 86 -236 216c0 192 138 324 316 324c69 0 117 -16 154 -44l-22 -94h-53c-15 18 -42 32 -83 32c-102 0 -168 -95 -168 -217c0 -76 35 -113 103 -113c46 0 75 13 102 31h54l-23 -99c-33 -21 -80 -36 -144 -36zM190 562v37l106 101h100l72 -101v-37h-82
l-51 47l-71 -47h-74z" />
    <glyph glyph-name="cdotaccent" unicode="&#x10b;" horiz-adv-x="484" 
d="M263 -7c-160 0 -236 86 -236 216c0 192 138 324 316 324c69 0 117 -16 154 -44l-22 -94h-53c-15 18 -42 32 -83 32c-102 0 -168 -95 -168 -217c0 -76 35 -113 103 -113c46 0 75 13 102 31h54l-23 -99c-33 -21 -80 -36 -144 -36zM339 567c-44 0 -74 33 -74 74
c0 45 39 79 83 79s75 -34 75 -74c0 -46 -40 -79 -84 -79z" />
    <glyph glyph-name="dcaron" unicode="&#x10f;" horiz-adv-x="581" 
d="M426 0c-54 0 -78 28 -84 64c-37 -45 -88 -72 -149 -72c-94 0 -169 53 -169 193c0 195 118 347 279 347c60 0 98 -20 123 -49l50 217h88c38 0 55 -12 39 -82l-141 -618h-36zM244 93c31 0 69 16 103 42l58 257c-15 14 -38 31 -79 31c-99 0 -157 -101 -157 -232
c0 -66 21 -98 75 -98zM624 563l32 137h114v-42l-73 -95h-73z" />
    <glyph glyph-name="ebreve" unicode="&#x115;" horiz-adv-x="515" 
d="M251 -7c-145 0 -227 74 -227 215c0 170 105 325 280 325c127 0 190 -75 189 -189c0 -35 -6 -74 -17 -114h-310v-20c0 -84 35 -115 101 -115c49 0 91 13 129 37h47l-23 -101c-38 -21 -93 -38 -169 -38zM319 563c-81 0 -122 49 -128 100v37h93c0 -25 10 -42 38 -42
s43 16 48 42h91v-37c-15 -51 -63 -100 -142 -100zM295 440c-58 0 -98 -48 -117 -122h185c3 14 4 27 4 39c0 56 -28 83 -72 83z" />
    <glyph glyph-name="ecaron" unicode="&#x11b;" horiz-adv-x="515" 
d="M251 -7c-145 0 -227 74 -227 215c0 170 105 325 280 325c127 0 190 -75 189 -189c0 -35 -6 -74 -17 -114h-310v-20c0 -84 35 -115 101 -115c49 0 91 13 129 37h47l-23 -101c-38 -21 -93 -38 -169 -38zM265 562l-72 101v37h82l51 -47l71 47h74v-37l-106 -101h-100z
M295 440c-58 0 -98 -48 -117 -122h185c3 14 4 27 4 39c0 56 -28 83 -72 83z" />
    <glyph glyph-name="edotaccent" unicode="&#x117;" horiz-adv-x="515" 
d="M251 -7c-145 0 -227 74 -227 215c0 170 105 325 280 325c127 0 190 -75 189 -189c0 -35 -6 -74 -17 -114h-310v-20c0 -84 35 -115 101 -115c49 0 91 13 129 37h47l-23 -101c-38 -21 -93 -38 -169 -38zM320 567c-44 0 -74 33 -74 74c0 45 39 79 83 79s75 -34 75 -74
c0 -46 -40 -79 -84 -79zM295 440c-58 0 -98 -48 -117 -122h185c3 14 4 27 4 39c0 56 -28 83 -72 83z" />
    <glyph glyph-name="emacron" unicode="&#x113;" horiz-adv-x="515" 
d="M251 -7c-145 0 -227 74 -227 215c0 170 105 325 280 325c127 0 190 -75 189 -189c0 -35 -6 -74 -17 -114h-310v-20c0 -84 35 -115 101 -115c49 0 91 13 129 37h47l-23 -101c-38 -21 -93 -38 -169 -38zM187 584l23 98h260l-23 -98h-260zM295 440c-58 0 -98 -48 -117 -122
h185c3 14 4 27 4 39c0 56 -28 83 -72 83z" />
    <glyph glyph-name="eogonek" unicode="&#x119;" horiz-adv-x="515" 
d="M443 132l-23 -101c-23 -13 -42 -18 -62 -29c-31 -17 -53 -37 -53 -59c0 -16 10 -24 37 -24h19l-16 -67c-17 -10 -39 -17 -64 -17c-54 0 -86 30 -86 73c0 39 33 68 63 85h-7c-145 0 -227 74 -227 215c0 170 105 325 280 325c127 0 190 -75 189 -189c0 -35 -6 -74 -17 -114
h-310v-20c0 -84 35 -115 101 -115c49 0 91 13 129 37h47zM295 440c-58 0 -98 -48 -117 -122h185c3 14 4 27 4 39c0 56 -28 83 -72 83z" />
    <glyph glyph-name="gbreve" unicode="&#x11f;" horiz-adv-x="575" 
d="M183 -172c-101 0 -158 25 -193 48l24 101h44c25 -27 67 -43 123 -43c70 0 124 24 141 100l13 57c-39 -41 -94 -69 -154 -69c-85 0 -157 54 -157 175c0 189 116 336 280 336c64 0 112 -32 138 -59c21 27 53 51 98 51h41l-114 -494c-36 -154 -135 -203 -284 -203zM234 124
c39 0 80 18 120 50l52 229c-15 15 -37 34 -82 34c-106 0 -155 -118 -155 -234c0 -54 22 -79 65 -79zM360 563c-81 0 -122 49 -128 100v37h93c0 -25 10 -42 38 -42s43 16 48 42h91v-37c-15 -51 -63 -100 -142 -100z" />
    <glyph glyph-name="gcircumflex" unicode="&#x11d;" horiz-adv-x="575" 
d="M183 -172c-101 0 -158 25 -193 48l24 101h44c25 -27 67 -43 123 -43c70 0 124 24 141 100l13 57c-39 -41 -94 -69 -154 -69c-85 0 -157 54 -157 175c0 189 116 336 280 336c64 0 112 -32 138 -59c21 27 53 51 98 51h41l-114 -494c-36 -154 -135 -203 -284 -203zM234 124
c39 0 80 18 120 50l52 229c-15 15 -37 34 -82 34c-106 0 -155 -118 -155 -234c0 -54 22 -79 65 -79zM212 562v37l106 101h100l72 -101v-37h-82l-51 47l-71 -47h-74z" />
    <glyph glyph-name="gcommaaccent" unicode="&#x123;" horiz-adv-x="575" 
d="M183 -172c-101 0 -158 25 -193 48l24 101h44c25 -27 67 -43 123 -43c70 0 124 24 141 100l13 57c-39 -41 -94 -69 -154 -69c-85 0 -157 54 -157 175c0 189 116 336 280 336c64 0 112 -32 138 -59c21 27 53 51 98 51h41l-114 -494c-36 -154 -135 -203 -284 -203zM234 124
c39 0 80 18 120 50l52 229c-15 15 -37 34 -82 34c-106 0 -155 -118 -155 -234c0 -54 22 -79 65 -79zM440 770l-13 -58c-34 -3 -53 -13 -53 -25c0 -7 4 -11 13 -18c12 -9 19 -20 19 -38c0 -38 -30 -64 -64 -64c-35 0 -63 25 -63 66c0 87 67 133 161 137z" />
    <glyph glyph-name="gdotaccent" unicode="&#x121;" horiz-adv-x="575" 
d="M183 -172c-101 0 -158 25 -193 48l24 101h44c25 -27 67 -43 123 -43c70 0 124 24 141 100l13 57c-39 -41 -94 -69 -154 -69c-85 0 -157 54 -157 175c0 189 116 336 280 336c64 0 112 -32 138 -59c21 27 53 51 98 51h41l-114 -494c-36 -154 -135 -203 -284 -203zM234 124
c39 0 80 18 120 50l52 229c-15 15 -37 34 -82 34c-106 0 -155 -118 -155 -234c0 -54 22 -79 65 -79zM361 567c-44 0 -74 33 -74 74c0 45 39 79 83 79s75 -34 75 -74c0 -46 -40 -79 -84 -79z" />
    <glyph glyph-name="hbar" unicode="&#x127;" horiz-adv-x="572" 
d="M71 561l20 85h52l13 54h88c35 0 52 -13 45 -54h135l-20 -85h-134l-22 -97c52 40 108 69 187 69c82 0 133 -67 108 -177l-82 -356h-97c-34 0 -45 14 -33 65l65 291c9 42 -4 61 -36 61c-37 0 -80 -15 -134 -48l-84 -369h-146l128 561h-53z" />
    <glyph glyph-name="hcircumflex" unicode="&#x125;" horiz-adv-x="572" 
d="M-4 0l160 700h88c38 0 55 -12 39 -82l-35 -155c52 40 108 70 187 70c82 0 133 -67 108 -177l-82 -356h-97c-34 0 -45 14 -33 65l65 291c9 42 -4 61 -36 61c-37 0 -80 -15 -134 -48l-84 -369h-146zM249 722v37l106 101h100l72 -101v-37h-82l-51 47l-71 -47h-74z" />
    <glyph glyph-name="imacron" unicode="&#x12b;" horiz-adv-x="260" 
d="M-3 0l120 525h80c46 0 63 -12 44 -96l-98 -429h-146zM73 584l23 98h248l-23 -98h-248z" />
    <glyph glyph-name="iogonek" unicode="&#x12f;" horiz-adv-x="260" 
d="M-3 0l120 525h80c46 0 63 -12 44 -96l-98 -429h-15c-30 -19 -50 -35 -50 -57c0 -16 10 -24 37 -24h19l-16 -67c-17 -10 -39 -17 -64 -17c-54 0 -86 30 -86 73c0 45 37 76 72 92h-43zM208 567c-44 0 -74 33 -74 74c0 45 39 79 83 79s75 -34 75 -74c0 -46 -40 -79 -84 -79z
" />
    <glyph glyph-name="jcircumflex" unicode="&#x135;" horiz-adv-x="258" 
d="M-31 -168c-45 0 -65 6 -87 14l19 81h18c49 0 64 10 75 60l123 538h80c46 0 63 -12 44 -96l-103 -451c-25 -110 -81 -146 -169 -146zM52 562v37l106 101h100l72 -101v-37h-82l-51 47l-71 -47h-74z" />
    <glyph glyph-name="kcommaaccent" unicode="&#x137;" horiz-adv-x="524" 
d="M-4 0l160 700h88c38 0 55 -12 39 -82l-67 -292l202 199h127v-38l-199 -183l121 -264v-40h-135l-97 212l-57 -54l-36 -158h-146zM108 -221l13 58c34 3 53 13 53 25c0 7 -4 11 -13 18c-12 9 -19 20 -19 38c0 38 30 64 64 64c35 0 63 -25 63 -66c0 -87 -67 -133 -161 -137z
" />
    <glyph glyph-name="lacute" unicode="&#x13a;" horiz-adv-x="263" 
d="M-3 0l160 700h88c38 0 55 -12 39 -82l-141 -618h-146zM181 722v31l52 107h142v-42l-115 -96h-79z" />
    <glyph glyph-name="lcaron" unicode="&#x13e;" horiz-adv-x="263" 
d="M305 563l32 137h114v-42l-73 -95h-73zM-3 0l160 700h88c38 0 55 -12 39 -82l-141 -618h-146z" />
    <glyph glyph-name="lcommaaccent" unicode="&#x13c;" horiz-adv-x="263" 
d="M-3 0l160 700h88c38 0 55 -12 39 -82l-141 -618h-146zM-49 -221l13 58c34 3 53 13 53 25c0 7 -4 11 -13 18c-12 9 -19 20 -19 38c0 38 30 64 64 64c35 0 63 -25 63 -66c0 -87 -67 -133 -161 -137z" />
    <glyph glyph-name="nacute" unicode="&#x144;" horiz-adv-x="572" 
d="M-4 0l120 525h48c55 0 74 -27 76 -68c54 43 112 76 195 76c82 0 133 -67 108 -177l-82 -356h-97c-34 0 -45 14 -33 65l65 291c9 42 -4 61 -36 61c-37 0 -80 -15 -134 -48l-84 -369h-146zM296 562v31l52 107h142v-42l-115 -96h-79z" />
    <glyph glyph-name="ncaron" unicode="&#x148;" horiz-adv-x="572" 
d="M-4 0l120 525h48c55 0 74 -27 76 -68c54 43 112 76 195 76c82 0 133 -67 108 -177l-82 -356h-97c-34 0 -45 14 -33 65l65 291c9 42 -4 61 -36 61c-37 0 -80 -15 -134 -48l-84 -369h-146zM290 562l-72 101v37h82l51 -47l71 47h74v-37l-106 -101h-100z" />
    <glyph glyph-name="ncommaaccent" unicode="&#x146;" horiz-adv-x="572" 
d="M-4 0l120 525h48c55 0 74 -27 76 -68c54 43 112 76 195 76c82 0 133 -67 108 -177l-82 -356h-97c-34 0 -45 14 -33 65l65 291c9 42 -4 61 -36 61c-37 0 -80 -15 -134 -48l-84 -369h-146zM131 -221l13 58c34 3 53 13 53 25c0 7 -4 11 -13 18c-12 9 -19 20 -19 38
c0 38 30 64 64 64c35 0 63 -25 63 -66c0 -87 -67 -133 -161 -137z" />
    <glyph glyph-name="ohungarumlaut" unicode="&#x151;" horiz-adv-x="569" 
d="M262 95c89 0 137 104 137 216c0 84 -36 118 -90 118c-86 0 -139 -108 -139 -218c0 -84 36 -116 92 -116zM257 -6c-146 0 -230 85 -230 220c0 194 133 319 286 319c146 0 229 -90 229 -225c0 -194 -124 -314 -285 -314zM200 562v28l46 110h115v-42l-89 -96h-72zM363 562
v28l46 110h115v-42l-89 -96h-72z" />
    <glyph glyph-name="omacron" unicode="&#x14d;" horiz-adv-x="569" 
d="M262 95c89 0 137 104 137 216c0 84 -36 118 -90 118c-86 0 -139 -108 -139 -218c0 -84 36 -116 92 -116zM257 -6c-146 0 -230 85 -230 220c0 194 133 319 286 319c146 0 229 -90 229 -225c0 -194 -124 -314 -285 -314zM205 584l23 98h260l-23 -98h-260z" />
    <glyph glyph-name="racute" unicode="&#x155;" horiz-adv-x="388" 
d="M-4 0l120 525h46c63 0 81 -35 78 -87c39 54 93 92 152 92c11 0 21 -2 30 -5l-27 -123h-18c-69 0 -121 -24 -154 -52l-80 -350h-147zM223 562v31l52 107h142v-42l-115 -96h-79z" />
    <glyph glyph-name="rcaron" unicode="&#x159;" horiz-adv-x="388" 
d="M-4 0l120 525h46c63 0 81 -35 78 -87c39 54 93 92 152 92c11 0 21 -2 30 -5l-27 -123h-18c-69 0 -121 -24 -154 -52l-80 -350h-147zM223 562l-72 101v37h82l51 -47l71 47h74v-37l-106 -101h-100z" />
    <glyph glyph-name="rcommaaccent" unicode="&#x157;" horiz-adv-x="388" 
d="M-4 0l120 525h46c63 0 81 -35 78 -87c39 54 93 92 152 92c11 0 21 -2 30 -5l-27 -123h-18c-69 0 -121 -24 -154 -52l-80 -350h-147zM-45 -221l13 58c34 3 53 13 53 25c0 7 -4 11 -13 18c-12 9 -19 20 -19 38c0 38 30 64 64 64c35 0 63 -25 63 -66
c0 -87 -67 -133 -161 -137z" />
    <glyph glyph-name="sacute" unicode="&#x15b;" horiz-adv-x="434" 
d="M164 -6c-92 0 -150 26 -182 50l23 99h47c22 -26 61 -46 116 -46c46 0 84 15 84 52c0 28 -21 39 -69 56c-88 31 -136 67 -136 148c0 110 81 177 213 177c79 0 132 -23 168 -49l-22 -92h-44c-22 20 -60 39 -108 39c-51 0 -76 -18 -76 -50c0 -24 18 -36 72 -55
c79 -28 137 -60 137 -144c0 -114 -85 -185 -223 -185zM231 562v31l52 107h142v-42l-115 -96h-79z" />
    <glyph glyph-name="scedilla" unicode="&#x15f;" horiz-adv-x="434" 
d="M135 -175c-44 0 -64 7 -83 20l13 56h29c5 -8 15 -14 35 -14c17 0 31 5 31 19c0 11 -8 18 -32 18h-26l17 72c-67 7 -111 28 -137 48l23 99h47c22 -26 61 -46 116 -46c46 0 84 15 84 52c0 28 -21 39 -69 56c-88 31 -136 67 -136 148c0 110 81 177 213 177
c79 0 132 -23 168 -49l-22 -92h-44c-22 20 -60 39 -108 39c-51 0 -76 -18 -76 -50c0 -24 18 -36 72 -55c79 -28 137 -60 137 -144c0 -108 -76 -177 -200 -184l-4 -19c44 -2 65 -30 65 -65c0 -67 -57 -86 -113 -86z" />
    <glyph glyph-name="scircumflex" unicode="&#x15d;" horiz-adv-x="434" 
d="M164 -6c-92 0 -150 26 -182 50l23 99h47c22 -26 61 -46 116 -46c46 0 84 15 84 52c0 28 -21 39 -69 56c-88 31 -136 67 -136 148c0 110 81 177 213 177c79 0 132 -23 168 -49l-22 -92h-44c-22 20 -60 39 -108 39c-51 0 -76 -18 -76 -50c0 -24 18 -36 72 -55
c79 -28 137 -60 137 -144c0 -114 -85 -185 -223 -185zM137 562v37l106 101h100l72 -101v-37h-82l-51 47l-71 -47h-74z" />
    <glyph glyph-name="scommaaccent" unicode="&#x219;" horiz-adv-x="434" 
d="M164 -6c-92 0 -150 26 -182 50l23 99h47c22 -26 61 -46 116 -46c46 0 84 15 84 52c0 28 -21 39 -69 56c-88 31 -136 67 -136 148c0 110 81 177 213 177c79 0 132 -23 168 -49l-22 -92h-44c-22 20 -60 39 -108 39c-51 0 -76 -18 -76 -50c0 -24 18 -36 72 -55
c79 -28 137 -60 137 -144c0 -114 -85 -185 -223 -185zM37 -221l13 58c34 3 53 13 53 25c0 7 -4 11 -13 18c-12 9 -19 20 -19 38c0 38 30 64 64 64c35 0 63 -25 63 -66c0 -87 -67 -133 -161 -137z" />
    <glyph glyph-name="tcaron" unicode="&#x165;" horiz-adv-x="347" 
d="M328 563l32 137h114v-42l-73 -95h-73zM181 -8c-110 0 -153 65 -129 171l61 264h-57l21 98h58l32 140h146l-32 -140h94l-21 -98h-96l-61 -267c-10 -44 4 -68 59 -68h25l-19 -87c-21 -8 -43 -13 -81 -13z" />
    <glyph glyph-name="tcommaaccent" unicode="&#x163;" horiz-adv-x="347" 
d="M181 -8c-110 0 -153 65 -129 171l61 264h-57l21 98h58l32 140h146l-32 -140h94l-21 -98h-96l-61 -267c-10 -44 4 -68 59 -68h25l-19 -87c-21 -8 -43 -13 -81 -13zM19 -221l13 58c34 3 53 13 53 25c0 7 -4 11 -13 18c-12 9 -19 20 -19 38c0 38 30 64 64 64
c35 0 63 -25 63 -66c0 -87 -67 -133 -161 -137z" />
    <glyph glyph-name="ubreve" unicode="&#x16d;" horiz-adv-x="569" 
d="M410 0c-57 0 -79 29 -83 69c-53 -43 -107 -77 -183 -77c-91 0 -141 63 -114 177l83 356h97c34 0 45 -14 33 -65l-65 -291c-9 -42 4 -62 36 -62c35 0 75 15 123 45l85 373h146l-120 -525h-38zM342 563c-81 0 -122 49 -128 100v37h93c0 -25 10 -42 38 -42s43 16 48 42h91
v-37c-15 -51 -63 -100 -142 -100z" />
    <glyph glyph-name="uhungarumlaut" unicode="&#x171;" horiz-adv-x="569" 
d="M410 0c-57 0 -79 29 -83 69c-53 -43 -107 -77 -183 -77c-91 0 -141 63 -114 177l83 356h97c34 0 45 -14 33 -65l-65 -291c-9 -42 4 -62 36 -62c35 0 75 15 123 45l85 373h146l-120 -525h-38zM377 562v28l46 110h115v-42l-89 -96h-72zM214 562v28l46 110h115v-42l-89 -96
h-72z" />
    <glyph glyph-name="umacron" unicode="&#x16b;" horiz-adv-x="569" 
d="M410 0c-57 0 -79 29 -83 69c-53 -43 -107 -77 -183 -77c-91 0 -141 63 -114 177l83 356h97c34 0 45 -14 33 -65l-65 -291c-9 -42 4 -62 36 -62c35 0 75 15 123 45l85 373h146l-120 -525h-38zM220 584l23 98h260l-23 -98h-260z" />
    <glyph glyph-name="uogonek" unicode="&#x173;" horiz-adv-x="569" 
d="M374 -165c-54 0 -86 30 -86 73s33 79 76 101c-24 11 -35 33 -37 60c-53 -43 -107 -77 -183 -77c-91 0 -141 63 -114 177l83 356h97c34 0 45 -14 33 -65l-65 -291c-9 -42 4 -62 36 -62c35 0 75 15 123 45l85 373h146l-120 -525c-30 -19 -50 -35 -50 -57
c0 -16 10 -24 37 -24h19l-16 -67c-17 -10 -39 -17 -64 -17z" />
    <glyph glyph-name="uring" unicode="&#x16f;" horiz-adv-x="569" 
d="M410 0c-57 0 -79 29 -83 69c-53 -43 -107 -77 -183 -77c-91 0 -141 63 -114 177l83 356h97c34 0 45 -14 33 -65l-65 -291c-9 -42 4 -62 36 -62c35 0 75 15 123 45l85 373h146l-120 -525h-38zM343 566c-56 0 -101 35 -101 94c0 65 52 107 109 107c56 0 101 -36 101 -96
c0 -65 -52 -105 -109 -105zM344 628c23 0 40 17 40 42c0 22 -14 35 -35 35c-23 0 -38 -17 -38 -44c0 -20 12 -33 33 -33z" />
    <glyph glyph-name="zacute" unicode="&#x17a;" horiz-adv-x="474" 
d="M-34 0l23 101l315 321h-226l24 103h399l-23 -102l-318 -320h237l-24 -103h-407zM258 562v31l52 107h142v-42l-115 -96h-79z" />
    <glyph glyph-name="zdotaccent" unicode="&#x17c;" horiz-adv-x="474" 
d="M-34 0l23 101l315 321h-226l24 103h399l-23 -102l-318 -320h237l-24 -103h-407zM313 567c-44 0 -74 33 -74 74c0 45 39 79 83 79s75 -34 75 -74c0 -46 -40 -79 -84 -79z" />
    <glyph glyph-name="space_uni0326" 
d="M35 -221l13 58c34 3 53 13 53 25c0 7 -4 11 -13 18c-12 9 -19 20 -19 38c0 38 30 64 64 64c35 0 63 -25 63 -66c0 -87 -67 -133 -161 -137z" />
    <glyph glyph-name="zero.numerator" horiz-adv-x="411" 
d="M242 388c69 0 91 104 91 171c0 39 -13 68 -48 68c-69 0 -92 -104 -92 -171c0 -39 14 -68 49 -68zM236 309c-97 0 -155 61 -155 150c0 134 80 247 210 247c95 0 154 -59 154 -150c0 -135 -79 -247 -209 -247z" />
    <glyph glyph-name="one.numerator" horiz-adv-x="263" 
d="M110 315l62 270l-58 -27h-22l20 86l119 56h85l-89 -385h-117z" />
    <glyph glyph-name="two.numerator" horiz-adv-x="336" 
d="M38 315l20 87l119 86c48 34 85 65 85 98c0 22 -13 35 -43 35s-56 -12 -74 -26h-38l19 83c32 18 69 28 117 28c91 0 137 -43 137 -107c0 -62 -47 -105 -131 -159l-64 -41h154l-20 -84h-281z" />
    <glyph glyph-name="three.numerator" horiz-adv-x="331" 
d="M178 309c-54 0 -102 15 -136 43l16 70h39c12 -14 37 -36 76 -36c33 0 56 16 56 44c0 27 -16 42 -53 42h-30l17 72h41c36 0 54 18 54 42c0 27 -14 39 -46 39c-28 0 -50 -11 -66 -20h-38l17 75c24 14 66 27 110 27c78 0 134 -31 134 -104c0 -54 -35 -85 -94 -97v-2
c38 -9 66 -36 66 -80c0 -73 -70 -115 -163 -115z" />
    <glyph glyph-name="four.numerator" horiz-adv-x="367" 
d="M214 315l18 79h-175l20 85l226 221h106l-54 -233h40l-17 -73h-40l-18 -79h-106zM155 467h95l28 119h-3l-120 -117v-2z" />
    <glyph glyph-name="five.numerator" horiz-adv-x="337" 
d="M169 310c-47 0 -95 15 -123 38l16 71h41c11 -13 30 -30 68 -30c45 0 71 24 71 60c0 26 -18 39 -43 39c-24 0 -40 -11 -51 -23h-63l54 235h247l-19 -84h-167l-18 -75h2c13 9 38 17 68 17c61 0 103 -37 103 -98c0 -95 -72 -150 -186 -150z" />
    <glyph glyph-name="six.numerator" horiz-adv-x="377" 
d="M228 309c-92 0 -146 56 -146 140c0 68 21 126 53 167c43 55 100 89 181 89c53 0 85 -16 106 -32l-16 -71h-42c-13 12 -30 21 -55 21c-35 0 -62 -14 -84 -44c-11 -15 -20 -33 -26 -52c22 15 49 26 87 26c61 0 105 -33 105 -106c0 -85 -69 -138 -163 -138zM240 487
c-23 0 -41 -6 -53 -12c-1 -10 -1 -21 -1 -32c0 -47 17 -63 45 -63c34 0 55 26 55 62c0 31 -18 45 -46 45z" />
    <glyph glyph-name="seven.numerator" horiz-adv-x="321" 
d="M87 315v33l198 262v2h-183l20 88h274l-21 -93l-181 -292h-107z" />
    <glyph glyph-name="eight.numerator" horiz-adv-x="373" 
d="M221 307c-82 0 -156 34 -156 108c0 63 39 93 95 107v2c-27 11 -44 37 -44 68c0 69 61 113 155 113c80 0 139 -36 139 -105c0 -46 -31 -76 -76 -85v-2c35 -15 55 -41 55 -85c0 -65 -60 -121 -168 -121zM224 378c33 0 60 28 60 59c0 28 -17 49 -51 49
c-38 0 -62 -28 -62 -59c0 -32 24 -49 53 -49zM261 547c29 0 49 19 49 46s-16 43 -43 43c-28 0 -51 -22 -51 -50c0 -27 20 -39 45 -39z" />
    <glyph glyph-name="nine.numerator" horiz-adv-x="372" 
d="M180 309c-60 0 -93 17 -114 33l16 69h42c13 -12 31 -20 61 -20s60 10 81 39c10 15 19 33 25 53c-23 -16 -50 -26 -89 -26c-61 0 -104 40 -104 102c0 93 75 147 165 147c89 0 144 -54 144 -147c0 -62 -19 -126 -51 -167c-43 -55 -102 -83 -176 -83zM248 524
c23 0 41 6 53 12c1 10 2 21 2 32c0 45 -18 66 -46 66c-34 0 -57 -28 -57 -66c0 -29 17 -44 48 -44z" />
    <glyph glyph-name="zero.denominator" horiz-adv-x="411" 
d="M170 73c69 0 91 104 91 171c0 39 -13 68 -48 68c-69 0 -92 -104 -92 -171c0 -39 14 -68 49 -68zM164 -6c-97 0 -155 61 -155 150c0 134 80 247 210 247c95 0 154 -59 154 -150c0 -135 -79 -247 -209 -247z" />
    <glyph glyph-name="one.denominator" horiz-adv-x="263" 
d="M38 0l62 270l-58 -27h-22l20 86l119 56h85l-89 -385h-117z" />
    <glyph glyph-name="two.denominator" horiz-adv-x="336" 
d="M-34 0l20 87l119 86c48 34 85 65 85 98c0 22 -13 35 -43 35s-56 -12 -74 -26h-38l19 83c32 18 69 28 117 28c91 0 137 -43 137 -107c0 -62 -47 -105 -131 -159l-64 -41h154l-20 -84h-281z" />
    <glyph glyph-name="three.denominator" horiz-adv-x="331" 
d="M106 -6c-54 0 -102 15 -136 43l16 70h39c12 -14 37 -36 76 -36c33 0 56 16 56 44c0 27 -16 42 -53 42h-30l17 72h41c36 0 54 18 54 42c0 27 -14 39 -46 39c-28 0 -50 -11 -66 -20h-38l17 75c24 14 66 27 110 27c78 0 134 -31 134 -104c0 -54 -35 -85 -94 -97v-2
c38 -9 66 -36 66 -80c0 -73 -70 -115 -163 -115z" />
    <glyph glyph-name="four.denominator" horiz-adv-x="367" 
d="M142 0l18 79h-175l20 85l226 221h106l-54 -233h40l-17 -73h-40l-18 -79h-106zM83 152h95l28 119h-3l-120 -117v-2z" />
    <glyph glyph-name="five.denominator" horiz-adv-x="337" 
d="M97 -5c-47 0 -95 15 -123 38l16 71h41c11 -13 30 -30 68 -30c45 0 71 24 71 60c0 26 -18 39 -43 39c-24 0 -40 -11 -51 -23h-63l54 235h247l-19 -84h-167l-18 -75h2c13 9 38 17 68 17c61 0 103 -37 103 -98c0 -95 -72 -150 -186 -150z" />
    <glyph glyph-name="six.denominator" horiz-adv-x="377" 
d="M156 -6c-92 0 -146 56 -146 140c0 68 21 126 53 167c43 55 100 89 181 89c53 0 85 -16 106 -32l-16 -71h-42c-13 12 -30 21 -55 21c-35 0 -62 -14 -84 -44c-11 -15 -20 -33 -26 -52c22 15 49 26 87 26c61 0 105 -33 105 -106c0 -85 -69 -138 -163 -138zM168 172
c-23 0 -41 -6 -53 -12c-1 -10 -1 -21 -1 -32c0 -47 17 -63 45 -63c34 0 55 26 55 62c0 31 -18 45 -46 45z" />
    <glyph glyph-name="seven.denominator" horiz-adv-x="321" 
d="M15 0v33l198 262v2h-183l20 88h274l-21 -93l-181 -292h-107z" />
    <glyph glyph-name="eight.denominator" horiz-adv-x="373" 
d="M149 -8c-82 0 -156 34 -156 108c0 63 39 93 95 107v2c-27 11 -44 37 -44 68c0 69 61 113 155 113c80 0 139 -36 139 -105c0 -46 -31 -76 -76 -85v-2c35 -15 55 -41 55 -85c0 -65 -60 -121 -168 -121zM152 63c33 0 60 28 60 59c0 28 -17 49 -51 49c-38 0 -62 -28 -62 -59
c0 -32 24 -49 53 -49zM189 232c29 0 49 19 49 46s-16 43 -43 43c-28 0 -51 -22 -51 -50c0 -27 20 -39 45 -39z" />
    <glyph glyph-name="nine.denominator" horiz-adv-x="372" 
d="M108 -6c-60 0 -93 17 -114 33l16 69h42c13 -12 31 -20 61 -20s60 10 81 39c10 15 19 33 25 53c-23 -16 -50 -26 -89 -26c-61 0 -104 40 -104 102c0 93 75 147 165 147c89 0 144 -54 144 -147c0 -62 -19 -126 -51 -167c-43 -55 -102 -83 -176 -83zM176 209
c23 0 41 6 53 12c1 10 2 21 2 32c0 45 -18 66 -46 66c-34 0 -57 -28 -57 -66c0 -29 17 -44 48 -44z" />
    <glyph glyph-name="one.superior" unicode="&#xb9;" horiz-adv-x="263" 
d="M111 315l62 270l-58 -27h-22l20 86l119 56h85l-89 -385h-117z" />
    <glyph glyph-name="two.superior" unicode="&#xb2;" horiz-adv-x="336" 
d="M39 315l20 87l119 86c48 34 85 65 85 98c0 22 -13 35 -43 35s-56 -12 -74 -26h-38l19 83c32 18 69 28 117 28c91 0 137 -43 137 -107c0 -62 -45 -105 -129 -159l-64 -41h152l-20 -84h-281z" />
    <glyph glyph-name="three.superior" unicode="&#xb3;" horiz-adv-x="331" 
d="M179 309c-54 0 -102 15 -136 43l16 70h39c12 -14 38 -36 77 -36c33 0 59 16 59 44c0 27 -18 42 -55 42h-32l17 72h43c36 0 56 18 56 42c0 27 -17 39 -50 39c-28 0 -50 -11 -66 -20h-38l17 75c24 14 66 27 110 27c78 0 134 -31 134 -104c0 -54 -35 -85 -94 -97v-2
c38 -9 66 -36 66 -80c0 -73 -70 -115 -163 -115z" />
    <glyph glyph-name="a.alt" horiz-adv-x="580" 
d="M425 0c-54 0 -79 27 -86 65c-37 -45 -84 -73 -149 -73c-90 0 -166 55 -166 186c0 189 122 354 284 354c65 0 107 -23 134 -56c21 27 52 49 96 49h41l-121 -525h-33zM240 93c36 0 64 14 103 43l61 266c-17 12 -39 21 -73 21c-100 0 -162 -119 -162 -244
c0 -57 24 -86 71 -86z" />
    <glyph glyph-name="aacute.alt" horiz-adv-x="580" 
d="M425 0c-54 0 -79 27 -86 65c-37 -45 -84 -73 -149 -73c-90 0 -166 55 -166 186c0 189 122 354 284 354c65 0 107 -23 134 -56c21 27 52 49 96 49h41l-121 -525h-33zM240 93c36 0 64 14 103 43l61 266c-17 12 -39 21 -73 21c-100 0 -162 -119 -162 -244
c0 -57 24 -86 71 -86zM325 562v31l52 107h142v-42l-115 -96h-79z" />
    <glyph glyph-name="abreve.alt" horiz-adv-x="580" 
d="M425 0c-54 0 -79 27 -86 65c-37 -45 -84 -73 -149 -73c-90 0 -166 55 -166 186c0 189 122 354 284 354c65 0 107 -23 134 -56c21 27 52 49 96 49h41l-121 -525h-33zM240 93c36 0 64 14 103 43l61 266c-17 12 -39 21 -73 21c-100 0 -162 -119 -162 -244
c0 -57 24 -86 71 -86zM351 563c-81 0 -122 49 -128 100v37h93c0 -25 10 -42 38 -42s43 16 48 42h91v-37c-15 -51 -63 -100 -142 -100z" />
    <glyph glyph-name="acircumflex.alt" horiz-adv-x="580" 
d="M425 0c-54 0 -79 27 -86 65c-37 -45 -84 -73 -149 -73c-90 0 -166 55 -166 186c0 189 122 354 284 354c65 0 107 -23 134 -56c21 27 52 49 96 49h41l-121 -525h-33zM240 93c36 0 64 14 103 43l61 266c-17 12 -39 21 -73 21c-100 0 -162 -119 -162 -244
c0 -57 24 -86 71 -86zM212 562v37l106 101h100l72 -101v-37h-82l-51 47l-71 -47h-74z" />
    <glyph glyph-name="adieresis.alt" horiz-adv-x="580" 
d="M425 0c-54 0 -79 27 -86 65c-37 -45 -84 -73 -149 -73c-90 0 -166 55 -166 186c0 189 122 354 284 354c65 0 107 -23 134 -56c21 27 52 49 96 49h41l-121 -525h-33zM240 93c36 0 64 14 103 43l61 266c-17 12 -39 21 -73 21c-100 0 -162 -119 -162 -244
c0 -57 24 -86 71 -86zM257 566c-42 0 -70 32 -70 71c0 43 37 76 79 76s71 -33 71 -71c0 -44 -38 -76 -80 -76zM449 566c-42 0 -70 32 -70 71c0 43 37 76 79 76s71 -33 71 -71c0 -44 -38 -76 -80 -76z" />
    <glyph glyph-name="agrave.alt" horiz-adv-x="580" 
d="M425 0c-54 0 -79 27 -86 65c-37 -45 -84 -73 -149 -73c-90 0 -166 55 -166 186c0 189 122 354 284 354c65 0 107 -23 134 -56c21 27 52 49 96 49h41l-121 -525h-33zM240 93c36 0 64 14 103 43l61 266c-17 12 -39 21 -73 21c-100 0 -162 -119 -162 -244
c0 -57 24 -86 71 -86zM330 562l-88 96v42h138l38 -107v-31h-88z" />
    <glyph glyph-name="amacron.alt" horiz-adv-x="580" 
d="M425 0c-54 0 -79 27 -86 65c-37 -45 -84 -73 -149 -73c-90 0 -166 55 -166 186c0 189 122 354 284 354c65 0 107 -23 134 -56c21 27 52 49 96 49h41l-121 -525h-33zM240 93c36 0 64 14 103 43l61 266c-17 12 -39 21 -73 21c-100 0 -162 -119 -162 -244
c0 -57 24 -86 71 -86zM218 584l23 98h260l-23 -98h-260z" />
    <glyph glyph-name="aogonek.alt" horiz-adv-x="580" 
d="M190 -8c-90 0 -166 55 -166 186c0 189 122 354 284 354c65 0 107 -23 134 -56c21 27 52 49 96 49h41l-121 -525c-30 -19 -50 -35 -50 -57c0 -16 10 -24 37 -24h19l-16 -67c-17 -10 -39 -17 -64 -17c-54 0 -86 30 -86 73c0 44 34 80 78 102c-22 11 -34 30 -38 54
c-37 -45 -83 -72 -148 -72zM240 93c36 0 64 14 103 43l61 266c-17 12 -39 21 -73 21c-100 0 -162 -119 -162 -244c0 -57 24 -86 71 -86z" />
    <glyph glyph-name="aring.alt" horiz-adv-x="580" 
d="M425 0c-54 0 -79 27 -86 65c-37 -45 -84 -73 -149 -73c-90 0 -166 55 -166 186c0 189 122 354 284 354c65 0 107 -23 134 -56c21 27 52 49 96 49h41l-121 -525h-33zM240 93c36 0 64 14 103 43l61 266c-17 12 -39 21 -73 21c-100 0 -162 -119 -162 -244
c0 -57 24 -86 71 -86zM354 566c-56 0 -101 35 -101 94c0 65 52 107 109 107c56 0 101 -36 101 -96c0 -65 -52 -105 -109 -105zM355 628c23 0 40 17 40 42c0 22 -14 35 -35 35c-23 0 -38 -17 -38 -44c0 -20 12 -33 33 -33z" />
    <glyph glyph-name="atilde.alt" horiz-adv-x="580" 
d="M425 0c-54 0 -79 27 -86 65c-37 -45 -84 -73 -149 -73c-90 0 -166 55 -166 186c0 189 122 354 284 354c65 0 107 -23 134 -56c21 27 52 49 96 49h41l-121 -525h-33zM240 93c36 0 64 14 103 43l61 266c-17 12 -39 21 -73 21c-100 0 -162 -119 -162 -244
c0 -57 24 -86 71 -86zM419 565c-47 0 -79 28 -104 28c-19 0 -29 -10 -36 -29h-75v38c21 62 57 94 110 94c47 0 80 -26 105 -26c18 0 27 10 35 27h75v-38c-21 -62 -57 -94 -110 -94z" />
    <glyph glyph-name="Q.alt" horiz-adv-x="730" 
d="M525 -124c-51 94 -173 88 -292 134c-123 48 -188 141 -188 278c0 218 145 420 375 420c184 0 301 -121 301 -296c0 -162 -78 -316 -228 -364v-3c89 -19 160 -63 181 -115v-54h-149zM352 99c150 0 210 187 210 316c0 93 -33 185 -145 185c-151 0 -213 -192 -213 -316
c0 -103 36 -185 148 -185z" />
    <glyph glyph-name="Q.alt1" horiz-adv-x="730" 
d="M345 -8c-185 0 -300 120 -300 296c0 218 145 420 375 420c184 0 301 -121 301 -296c0 -120 -41 -228 -111 -305l50 -48v-59h-120l-30 31c-48 -25 -104 -39 -165 -39zM352 97c30 0 57 6 80 17l-75 79v58h104l55 -54c32 59 46 137 46 218c0 93 -33 185 -145 185
c-151 0 -213 -192 -213 -316c0 -103 36 -187 148 -187z" />
    <glyph glyph-name="f.short" horiz-adv-x="321" 
d="M22 0l93 427h-62l21 98h62l9 40c23 100 85 145 183 145c41 0 63 -5 81 -12l-19 -89h-22c-44 0 -69 -8 -78 -49l-8 -35h90l-21 -98h-91l-96 -427h-142z" />
    <glyph glyph-name="f_f.short" horiz-adv-x="623" 
d="M22 0l93 427h-62l21 98h62l8 34c24 101 85 145 183 145c40 0 69 -6 87 -14l-19 -87h-28c-44 0 -68 -8 -78 -49l-7 -29h156l9 40c23 100 85 145 183 145c41 0 63 -5 81 -12l-19 -89h-22c-44 0 -69 -8 -78 -49l-8 -35h90l-21 -98h-91l-96 -427h-142l93 427h-157l-96 -427
h-142z" />
    <glyph glyph-name="less.cap" horiz-adv-x="426" 
d="M218 0l-172 311l18 77l293 312h130v-43l-294 -317v-3l155 -294v-43h-130z" />
    <glyph glyph-name="greater.cap" horiz-adv-x="426" 
d="M-16 0v43l294 317v3l-155 294v43h130l172 -311l-18 -77l-293 -312h-130z" />
    <glyph glyph-name="questiondown.cap" horiz-adv-x="449" 
d="M376 494c-7 -83 -23 -131 -107 -194c-47 -35 -113 -71 -113 -135c0 -42 31 -60 74 -60c44 0 80 15 109 35h57l-25 -109c-41 -24 -97 -40 -167 -40c-104 0 -202 40 -202 164c0 84 60 150 143 199c72 42 116 71 127 140h104zM351 706c46 0 78 -35 78 -78
c0 -47 -41 -83 -87 -83c-47 0 -79 36 -79 78c0 48 42 83 88 83z" />
    <glyph glyph-name="exclamdown.cap" horiz-adv-x="264" 
d="M234 494l-67 -408l-20 -86h-156l20 86l131 408h92zM219 706c46 0 78 -35 78 -78c0 -47 -41 -83 -87 -83c-47 0 -79 36 -79 78c0 48 42 83 88 83z" />
    <glyph glyph-name="bullet.cap" horiz-adv-x="320" 
d="M164 192c-70 0 -127 42 -127 114c0 95 71 156 153 156c69 0 125 -42 125 -112c0 -98 -67 -158 -151 -158z" />
    <glyph glyph-name="hyphen.cap" horiz-adv-x="283" 
d="M28 278l25 109h231l-25 -109h-231z" />
    <glyph glyph-name="endash.cap" horiz-adv-x="413" 
d="M29 281l24 103h361l-24 -103h-361z" />
    <glyph glyph-name="emdash.cap" horiz-adv-x="673" 
d="M29 281l24 103h621l-24 -103h-621z" />
    <glyph glyph-name="dagger.cap" horiz-adv-x="469" 
d="M124 0l40 269l16 71l54 100l-114 -31h-60l32 141h51l109 -32l-2 108l17 74h141l-19 -84l-50 -98l113 32h61l-32 -141h-52l-108 31l6 -111l-16 -72l-83 -257h-104z" />
    <glyph glyph-name="daggerdbl.cap" horiz-adv-x="469" 
d="M105 0l17 74l50 98l-115 -32h-60l33 141h51l109 -31l-14 80l11 44l49 76l-114 -31h-60l32 141h51l109 -32l-2 108l15 64h141l-17 -74l-50 -98l113 32h61l-32 -141h-52l-108 31l13 -80l-10 -44l-49 -76l113 31h61l-33 -141h-52l-107 32l2 -108l-15 -64h-141z" />
    <glyph glyph-name="quoteleft.cap" horiz-adv-x="525" 
d="M265 -8c-147 0 -235 92 -235 244c0 251 185 447 559 464l-23 -103c-197 -21 -255 -92 -255 -159c0 -53 68 -61 122 -100c32 -23 61 -64 61 -128c0 -130 -104 -218 -229 -218z" />
    <glyph glyph-name="quoteright.cap" horiz-adv-x="525" 
d="M-20 0l23 103c196 21 255 92 255 159c0 53 -68 61 -122 100c-32 23 -61 64 -61 128c0 130 104 218 229 218c147 0 235 -92 235 -244c0 -251 -185 -447 -559 -464z" />
    <glyph glyph-name="quotedblleft.cap" horiz-adv-x="1042" 
d="M265 -8c-147 0 -235 92 -235 244c0 251 185 447 559 464l-23 -103c-197 -21 -255 -92 -255 -159c0 -53 68 -61 122 -100c32 -23 61 -64 61 -128c0 -130 -104 -218 -229 -218zM782 -8c-147 0 -235 92 -235 244c0 251 185 447 559 464l-23 -103
c-196 -21 -255 -92 -255 -159c0 -53 68 -61 122 -100c32 -23 61 -64 61 -128c0 -130 -104 -218 -229 -218z" />
    <glyph glyph-name="quotedblright.cap" horiz-adv-x="1042" 
d="M-20 0l23 103c196 21 255 92 255 159c0 53 -68 61 -122 100c-32 23 -61 64 -61 128c0 130 104 218 229 218c147 0 235 -92 235 -244c0 -251 -185 -447 -559 -464zM497 0l23 103c197 21 255 92 255 159c0 53 -68 61 -122 100c-32 23 -61 64 -61 128c0 130 104 218 229 218
c147 0 235 -92 235 -244c0 -251 -185 -447 -559 -464z" />
    <glyph glyph-name="guillemotleft.cap" horiz-adv-x="696" 
d="M218 0l-172 311l18 77l293 312h130v-43l-294 -317v-3l155 -294v-43h-130zM488 0l-172 311l18 77l293 312h130v-43l-294 -317v-3l155 -294v-43h-130z" />
    <glyph glyph-name="guillemotright.cap" horiz-adv-x="696" 
d="M-16 0v43l294 317v3l-155 294v43h130l172 -311l-18 -77l-293 -312h-130zM254 0v43l294 317v3l-155 294v43h130l172 -311l-18 -77l-293 -312h-130z" />
    <glyph glyph-name="at.cap" horiz-adv-x="862" 
d="M461 -39c-201 0 -404 108 -404 359c0 266 218 410 420 410c203 0 376 -114 376 -318c0 -179 -110 -259 -232 -259c-78 0 -112 28 -127 64c-26 -35 -62 -63 -124 -63c-70 0 -123 47 -123 138c0 120 81 240 217 240c50 0 73 -16 95 -38c17 21 39 33 72 33h46l-51 -234
c-7 -30 -8 -54 25 -54c60 0 101 50 101 173c0 145 -109 231 -275 231c-160 0 -312 -102 -312 -323c0 -195 132 -272 296 -272c95 0 179 23 242 65h37l-22 -97c-60 -33 -157 -55 -257 -55zM415 248c26 0 51 13 74 37l32 146c-10 4 -19 8 -43 8c-63 0 -102 -68 -102 -145
c0 -30 15 -46 39 -46z" />
    <glyph glyph-name="paragraph.cap" horiz-adv-x="592" 
d="M192 0l70 303h-3c-103 0 -183 61 -183 167c0 181 151 230 305 230h252l-162 -700h-104l139 598h-71l-139 -598h-104z" />
    <glyph glyph-name="grave.cap" 
d="M360 722h-88l-84 86v42h138l34 -97v-31z" />
    <glyph glyph-name="dieresis.cap" 
d="M224 722c-42 0 -70 32 -70 71c0 43 37 76 79 76s71 -33 71 -71c0 -44 -38 -76 -80 -76zM416 722c-42 0 -70 32 -70 71c0 43 37 76 79 76s71 -33 71 -71c0 -44 -38 -76 -80 -76z" />
    <glyph glyph-name="macron.cap" 
d="M181 734l23 98h260l-23 -98h-260z" />
    <glyph glyph-name="acute.cap" 
d="M267 722v31l47 97h142v-42l-110 -86h-79z" />
    <glyph glyph-name="circumflex.cap" 
d="M171 722v37l105 95h100l73 -95v-37h-82l-52 42l-70 -42h-74z" />
    <glyph glyph-name="caron.cap" 
d="M469 854v-37l-105 -95h-100l-73 95v37h82l52 -42l70 42h74z" />
    <glyph glyph-name="breve.cap" 
d="M322 723c-81 0 -123 47 -129 92v37h93c0 -16 11 -34 39 -34s42 15 47 34h91v-37c-15 -45 -62 -92 -141 -92z" />
    <glyph glyph-name="dotaccent.cap" 
d="M321 724c-44 0 -74 33 -74 74c0 45 39 79 83 79s75 -34 75 -74c0 -46 -40 -79 -84 -79z" />
    <glyph glyph-name="ring.cap" 
d="M328 724c-56 0 -101 35 -101 94c0 65 52 107 109 107c56 0 101 -36 101 -96c0 -65 -52 -105 -109 -105zM329 786c23 0 40 17 40 42c0 22 -14 35 -35 35c-23 0 -38 -17 -38 -44c0 -20 12 -33 33 -33z" />
    <glyph glyph-name="tilde.cap" 
d="M370 723c-47 0 -79 28 -104 28c-19 0 -29 -10 -36 -29h-75v38c21 62 57 94 110 94c47 0 80 -26 105 -26c18 0 27 10 35 27h75v-38c-21 -62 -57 -94 -110 -94z" />
    <glyph glyph-name="hungarumlaut.cap" 
d="M188 722v28l40 100h115v-42l-83 -86h-72zM351 722v28l40 100h115v-42l-83 -86h-72z" />
    </font>
</defs>
</svg>
